<svg width="18" height="18" viewBox="0 0 18 18" fill="none" xmlns="http://www.w3.org/2000/svg">
<path d="M16.7143 0H1.2817C0.574554 0 0 0.582589 0 1.29777V16.7022C0 17.4174 0.574554 18 1.2817 18H16.7143C17.4214 18 18 17.4174 18 16.7022V1.29777C18 0.582589 17.4214 0 16.7143 0ZM5.44018 15.4286H2.77232V6.83839H5.4442V15.4286H5.44018ZM4.10625 5.66518C3.25045 5.66518 2.55938 4.97009 2.55938 4.1183C2.55938 3.26652 3.25045 2.57143 4.10625 2.57143C4.95804 2.57143 5.65312 3.26652 5.65312 4.1183C5.65312 4.97411 4.96205 5.66518 4.10625 5.66518ZM15.4406 15.4286H12.7728V11.25C12.7728 10.2536 12.7527 8.97188 11.3866 8.97188C9.99643 8.97188 9.78348 10.0567 9.78348 11.1777V15.4286H7.11563V6.83839H9.675V8.01161H9.71116C10.0687 7.33661 10.9406 6.62545 12.2384 6.62545C14.9384 6.62545 15.4406 8.40536 15.4406 10.7196V15.4286Z" fill="#6E6D79"/>
</svg>
