<svg width="18" height="14" viewBox="0 0 18 14" fill="none" xmlns="http://www.w3.org/2000/svg">
<path d="M16.1498 3.48905C16.1612 3.64217 16.1612 3.79532 16.1612 3.94844C16.1612 8.61873 12.4493 14 5.66499 14C3.57488 14 1.63326 13.4203 0 12.4141C0.296966 12.4469 0.582471 12.4578 0.890863 12.4578C2.61546 12.4578 4.20305 11.9 5.47083 10.9485C3.84899 10.9156 2.48985 9.89845 2.02156 8.49844C2.25001 8.53123 2.47842 8.55311 2.71829 8.55311C3.0495 8.55311 3.38074 8.50934 3.6891 8.43282C1.99875 8.10467 0.730936 6.68281 0.730936 4.96562V4.92189C1.22204 5.18439 1.79315 5.34845 2.39844 5.3703C1.40478 4.73591 0.753788 3.65311 0.753788 2.4281C0.753788 1.77186 0.936496 1.1703 1.25631 0.645296C3.07232 2.78904 5.80203 4.18902 8.86293 4.34217C8.80583 4.07967 8.77155 3.80626 8.77155 3.53282C8.77155 1.58592 10.4162 0 12.4607 0C13.5228 0 14.4822 0.426561 15.1561 1.11562C15.9898 0.962507 16.7893 0.66718 17.4975 0.262502C17.2233 1.08283 16.6409 1.7719 15.8756 2.20937C16.618 2.13284 17.3376 1.93592 18 1.66251C17.4975 2.36248 16.8693 2.9859 16.1498 3.48905Z" fill="#6E6D79"/>
</svg>
