<svg xmlns="http://www.w3.org/2000/svg" viewBox="0 0 1641.07 744.64"><defs><style>.cls-1{fill:#fff;}.cls-2{fill:#263238;}.cls-3{fill:#c0bdff;}</style></defs><g id="Layer_5" data-name="Layer 5"><rect class="cls-1" width="1641.07" height="744.64" rx="45.33"/><path class="cls-2" d="M146.37,117.23a20.7,20.7,0,0,1-.12-2.42q0-2.52-.14-6.64c-.07-5.83-.17-13.91-.28-23.67l.54.54-47.65.14c-.15.14,1.28-1.29.67-.68h0v8.63c0,2.84,0,5.64,0,8.38,0,5.47,0,10.73,0,15.71l-.62-.62,34.18.31,9.86.17,2.66.07a5.7,5.7,0,0,1,1,.07,27.34,27.34,0,0,1-3.36.15l-9.72.17-34.58.3H98.1v-.63c0-5,0-10.24,0-15.71,0-2.74,0-5.54,0-8.38V84.51h0l.68-.68,47.65.13h.55v.55c-.12,9.9-.22,18.1-.29,24-.06,2.69-.1,4.87-.14,6.52A14.36,14.36,0,0,1,146.37,117.23Z"/><path class="cls-2" d="M146.37,84.5a9.34,9.34,0,0,1-1.69,1.92c-1.15,1.17-2.85,2.83-5,4.87C135.49,95.35,129.58,100.9,123,107c-1.84,0-.51,0-.93,0h0v0l0,0-.08-.08-.15-.14-.31-.28-.61-.56-1.21-1.12-2.36-2.19-4.45-4.15-7.47-7.09c-2.12-2-3.81-3.7-5-4.87a9.65,9.65,0,0,1-1.7-1.92A9.29,9.29,0,0,1,100.77,86c1.26,1,3,2.61,5.25,4.55l7.67,6.88,4.5,4.09,2.38,2.17,1.21,1.12.61.56.31.28.15.15.08.07,0,0v0h0c-.4,0,.93,0-.91,0,6.58-6.07,12.59-11.5,17-15.39,2.19-1.94,4-3.5,5.25-4.55A9.41,9.41,0,0,1,146.37,84.5Z"/><path class="cls-2" d="M114.58,99.13c.29.25-3,4.53-7.45,9.56s-8.2,8.92-8.49,8.68,3.06-4.53,7.46-9.57S114.3,98.88,114.58,99.13Z"/><path class="cls-2" d="M146.68,117.61c-.29.24-4-3.86-8.24-9.16s-7.48-9.78-7.19-10,4,3.86,8.25,9.16S147,117.38,146.68,117.61Z"/><path class="cls-2" d="M328.2,96c0,.37-33.63.68-75.09.68S178,96.33,178,96s33.62-.68,75.1-.68S328.2,95.58,328.2,96Z"/><path class="cls-2" d="M178.66,156.52a8.93,8.93,0,0,1,1.84-.14l5.41-.15,19.88-.25h.27l.17.23L215,167.72l.13.16v.22c0,5.27,0,11,0,17v.67h-8.66l-35.77-.1h-.58v-.57c.06-5.89.11-11.12.15-15.56v-.12l.06-.1,6.09-9.55a28.73,28.73,0,0,1,2.23-3.25,4.52,4.52,0,0,1-.47,1c-.41.73-.9,1.59-1.48,2.64l-5.64,9.63.07-.23c0,4.44.08,9.67.14,15.56l-.57-.58,35.77-.1h8l-.68.68c0-6,0-11.73.05-17l.13.37c-3.1-4.18-6-8.09-8.62-11.62l.44.22-19.65-.26-5.49-.14A11.19,11.19,0,0,1,178.66,156.52Z"/><path class="cls-2" d="M214.47,168.9a15.42,15.42,0,0,1-3.77.53c-2.41.21-5.84.46-9.95.71l.57-.57a11.66,11.66,0,0,1-2.06,6.08,8.17,8.17,0,0,1-2.73,2.37,8.85,8.85,0,0,1-3.65.86,9,9,0,0,1-7.16-3,13.29,13.29,0,0,1-2.92-6.22l.56.48c-3.8-.06-7-.14-9.18-.24s-3.47-.21-3.47-.34a13.79,13.79,0,0,1,3.47-.33c2.21-.1,5.38-.18,9.18-.24h.46l.11.49a12.64,12.64,0,0,0,2.76,5.54,8.12,8.12,0,0,0,9.23,1.83,7.08,7.08,0,0,0,2.29-1.95,10.91,10.91,0,0,0,1.92-5.35l.06-.55.51,0c4.11-.13,7.55-.21,10-.22A15.89,15.89,0,0,1,214.47,168.9Z"/><path class="cls-2" d="M312.49,157.88a8.77,8.77,0,0,1,2.23-.21v.42c-5.32.27-21.36.47-40.28.47-11.74,0-22.37-.08-30.06-.2l-9.11-.22a16.34,16.34,0,0,1-3.34-.26,16.34,16.34,0,0,1,3.34-.26l9.11-.22c7.69-.12,18.32-.2,30.06-.2,18.92,0,35,.2,40.28.47v.42A8.77,8.77,0,0,1,312.49,157.88Z"/><path class="cls-2" d="M312.49,175a8.2,8.2,0,0,1,2.23-.21v.42c-5.32.27-21.36.47-40.28.47-11.74,0-22.37-.08-30.06-.2l-9.11-.22a16.34,16.34,0,0,1-3.34-.26,15,15,0,0,1,3.34-.27l9.11-.21c7.69-.13,18.32-.2,30.06-.2,18.92,0,35,.2,40.28.47v.42A8.77,8.77,0,0,1,312.49,175Z"/><path class="cls-2" d="M312.49,192a7.71,7.71,0,0,1,2.23-.21v.41c-5.32.28-21.36.48-40.28.48-11.74,0-22.37-.08-30.06-.2l-9.11-.22a16.34,16.34,0,0,1-3.34-.26,15,15,0,0,1,3.34-.27l9.11-.21c7.69-.13,18.32-.2,30.06-.2,18.92,0,35,.19,40.28.47v.41A8.57,8.57,0,0,1,312.49,192Z"/><path class="cls-2" d="M357.4,680.46s0-.53-.07-1.59,0-2.65-.06-4.67c0-4.15-.06-10.19-.11-18,0-15.65,0-38.2,0-66,.13-55.77.68-132.8,1.47-217.88s1.38-162.1,1.86-217.9c.17-27.85.32-50.4.42-66,.06-7.76.11-13.8.15-18,0-2,.05-3.57.07-4.67s.07-1.59.07-1.59.05.54.07,1.59,0,2.65.06,4.67c0,4.15.06,10.19.11,18,0,15.64,0,38.19,0,66-.13,55.76-.68,132.81-1.47,217.91s-1.38,162.07-1.86,217.87c-.18,27.85-.32,50.4-.42,66-.06,7.76-.11,13.8-.15,18,0,2-.05,3.57-.07,4.67S357.4,680.46,357.4,680.46Z"/><polygon class="cls-2" points="108.97 168.58 123.61 187.69 136.12 168.58 108.97 168.58"/><path class="cls-2" d="M1522.67,166.89a21.49,21.49,0,0,1-.12-2.46c0-1.72-.08-4-.14-6.76-.07-5.92-.17-14.13-.29-24.06l.55.56-48.43.13c-.16.15,1.3-1.3.68-.68h0v8.76q0,4.33,0,8.51c0,5.57,0,10.92-.05,16l-.63-.63,34.74.31,10,.17,2.7.07a5.24,5.24,0,0,1,1,.08,31.3,31.3,0,0,1-3.41.15l-9.88.17-35.15.31h-.63v-.63c0-5.06,0-10.41,0-16q0-4.17,0-8.51c0-1.44,0-2.9,0-4.36v-4.4h0l.7-.7,48.43.14h.57v.55c-.12,10.07-.22,18.4-.29,24.41q-.09,4.11-.14,6.63A15.61,15.61,0,0,1,1522.67,166.89Z"/><path class="cls-2" d="M1522.67,133.61c.07.07-.55.77-1.72,2s-2.89,2.88-5,4.94c-4.3,4.14-10.3,9.77-17,15.94-1.87,0-.52,0-.94,0h0l0,0-.08-.07-.16-.15-.31-.28-.62-.58-1.23-1.13-2.4-2.23-4.52-4.22-7.6-7.21c-2.14-2.06-3.87-3.75-5-4.94a9.5,9.5,0,0,1-1.72-2,9.31,9.31,0,0,1,2.09,1.56c1.28,1.07,3.1,2.65,5.34,4.62s4.93,4.43,7.8,7L1494,151l2.41,2.21,1.23,1.13.63.57.31.29.16.14.07.08,0,0,0,0h0c-.41,0,.94,0-.92,0,6.68-6.17,12.79-11.7,17.26-15.64,2.23-2,4.06-3.56,5.34-4.63A9.7,9.7,0,0,1,1522.67,133.61Z"/><path class="cls-2" d="M1490.36,148.49c.29.25-3.11,4.6-7.58,9.72s-8.33,9.06-8.62,8.81,3.11-4.6,7.58-9.72S1490.08,148.23,1490.36,148.49Z"/><path class="cls-2" d="M1523,167.27c-.3.24-4-3.93-8.38-9.31s-7.6-9.94-7.3-10.18,4,3.93,8.37,9.32S1523.28,167,1523,167.27Z"/><path class="cls-2" d="M1543.19,96.84c0,.38-712.53.69-855.11.69s-258.23-.31-258.23-.69,115.59-.69,258.23-.69S1543.19,96.46,1543.19,96.84Z"/><path class="cls-2" d="M1543.19,211.94c0,.38-712.53.69-855.11.69s-258.23-.31-258.23-.69,115.59-.69,258.23-.69S1543.19,211.56,1543.19,211.94Z"/><path class="cls-2" d="M464.84,138.22s.3,0,.83-.19a3.09,3.09,0,0,0,1.77-1.49c.54-.9.27-2.24.31-3.76s0-3.26-.05-5.16,0-4-.05-6.25c0-.56,0-1.13,0-1.71a4.89,4.89,0,0,0-.14-1.65,2.81,2.81,0,0,0-2.47-1.9l-16.42,0a2.77,2.77,0,0,0-2.7,2.25c-.1,1.28,0,2.78-.05,4.13,0,2.74,0,5.39,0,7.92,0,1.27,0,2.5,0,3.7a7,7,0,0,0,.08,1.68,2.81,2.81,0,0,0,2.06,2,6.8,6.8,0,0,0,1.52.09l3,0,9,.12,2.46.07a3.31,3.31,0,0,1,.85.07,4,4,0,0,1-.85.07l-2.46.07-9,.11-3,0a7.38,7.38,0,0,1-1.66-.09,3.28,3.28,0,0,1-1.57-.85,3.35,3.35,0,0,1-.95-1.6,7.69,7.69,0,0,1-.11-1.83c0-1.2,0-2.43,0-3.7,0-2.53,0-5.18,0-7.92v-2.08a18.11,18.11,0,0,1,.05-2.18,3.49,3.49,0,0,1,3.41-2.84l16.46,0a3.45,3.45,0,0,1,3,2.36,5.47,5.47,0,0,1,.16,1.85c0,.58,0,1.15,0,1.71,0,2.24,0,4.34,0,6.25s0,3.63-.06,5.16c0,.75,0,1.46,0,2.12a3.4,3.4,0,0,1-.43,1.78,3.18,3.18,0,0,1-2,1.49A2.23,2.23,0,0,1,464.84,138.22Z"/><path class="cls-2" d="M721.15,147.18c0,.39-39.83.7-88.95.7s-89-.31-89-.7,39.82-.69,89-.69S721.15,146.8,721.15,147.18Z"/><path class="cls-2" d="M832.35,166.81c0,.38-64.73.69-144.55.69s-144.55-.31-144.55-.69,64.71-.69,144.55-.69S832.35,166.43,832.35,166.81Z"/><path class="cls-3" d="M141.84,305.52H111.27a4.72,4.72,0,0,1-4.72-4.72V285.18a4.71,4.71,0,0,1,4.72-4.71h30.57A4.73,4.73,0,0,1,145,281.7l8.53,7.81a4.71,4.71,0,0,1,0,7L145,304.28A4.69,4.69,0,0,1,141.84,305.52Z"/><path d="M172.12,289.31v2.76h4.77v2.12h-4.77V297h5.3v2.13h-7.54v-11.9h7.54v2.13Z"/><path d="M184.8,292.55h5.83a3.78,3.78,0,0,1,.09.48,5.4,5.4,0,0,1,0,.56,6.71,6.71,0,0,1-.35,2.17,5.07,5.07,0,0,1-1.1,1.81,5.47,5.47,0,0,1-1.91,1.31,6.54,6.54,0,0,1-2.54.46,6.42,6.42,0,0,1-2.44-.46,6,6,0,0,1-2-1.3,6.35,6.35,0,0,1-1.34-6.94,6.26,6.26,0,0,1,1.34-2,6,6,0,0,1,2-1.3,6.76,6.76,0,0,1,5,0,6.17,6.17,0,0,1,1.95,1.38l-1.55,1.51a3.87,3.87,0,0,0-3-1.26,4.21,4.21,0,0,0-1.54.29,4.07,4.07,0,0,0-1.28.82,3.86,3.86,0,0,0-.87,1.29,4.49,4.49,0,0,0,0,3.38,3.75,3.75,0,0,0,.88,1.28,4,4,0,0,0,1.29.83,4.2,4.2,0,0,0,1.56.29,4,4,0,0,0,1.6-.28,3.81,3.81,0,0,0,1.12-.7,2.68,2.68,0,0,0,.58-.76,4.23,4.23,0,0,0,.37-1H184.8Z"/><path d="M192.35,293H198v1.93h-5.63Z"/><path d="M205.74,299.34a6.29,6.29,0,0,1-2.47-.48,6,6,0,0,1-3.27-3.3,6.32,6.32,0,0,1,1.3-6.84,6.09,6.09,0,0,1,2-1.32,6.47,6.47,0,0,1,4.94,0,6.09,6.09,0,0,1,2,1.32,6.32,6.32,0,0,1,1.3,2,6.35,6.35,0,0,1-1.3,6.85,6.09,6.09,0,0,1-2,1.32A6.29,6.29,0,0,1,205.74,299.34Zm0-2.12a4,4,0,0,0,1.55-.3,4,4,0,0,0,1.27-.83,3.79,3.79,0,0,0,.84-1.29,4.65,4.65,0,0,0,0-3.34,3.79,3.79,0,0,0-.84-1.29,4,4,0,0,0-1.27-.83,4.15,4.15,0,0,0-3.1,0,3.77,3.77,0,0,0-2.12,2.12,4.8,4.8,0,0,0,0,3.34,3.93,3.93,0,0,0,3.67,2.42Z"/><path d="M218.12,299.34a5,5,0,0,1-1.9-.34,3.79,3.79,0,0,1-1.46-1,4.45,4.45,0,0,1-.93-1.57,6.17,6.17,0,0,1-.33-2.1v-7.16h2.24v7.29a3.8,3.8,0,0,0,.15,1.1,2.57,2.57,0,0,0,.45.87,2.14,2.14,0,0,0,.75.57,2.4,2.4,0,0,0,1,.21,2.46,2.46,0,0,0,1-.21,2.1,2.1,0,0,0,.74-.57,2.57,2.57,0,0,0,.45-.87,3.8,3.8,0,0,0,.15-1.1v-7.29h2.25v7.16a6.06,6.06,0,0,1-.33,2,4.38,4.38,0,0,1-.93,1.58,4.22,4.22,0,0,1-1.46,1A4.9,4.9,0,0,1,218.12,299.34Z"/><path d="M227.41,299.08v-9.77h-3.33v-2.13H233v2.13h-3.32v9.77Z"/><path d="M238,299.34a5.05,5.05,0,0,1-1.46-.21,4.29,4.29,0,0,1-2.29-1.71,4.85,4.85,0,0,1-.68-1.45l2.11-.83a3.18,3.18,0,0,0,.81,1.49,2.07,2.07,0,0,0,1.53.59,2.46,2.46,0,0,0,.67-.09,2.06,2.06,0,0,0,.58-.27,1.22,1.22,0,0,0,.56-1.06,1.38,1.38,0,0,0-.12-.59,1.2,1.2,0,0,0-.39-.5,3.11,3.11,0,0,0-.71-.45c-.29-.14-.66-.29-1.09-.45l-.73-.26a7,7,0,0,1-1-.45,4,4,0,0,1-.89-.69,3.13,3.13,0,0,1-.66-.93,2.85,2.85,0,0,1-.25-1.23,3.15,3.15,0,0,1,.27-1.3,3.1,3.1,0,0,1,.78-1.06,3.57,3.57,0,0,1,1.21-.72,4.62,4.62,0,0,1,1.57-.26,4.33,4.33,0,0,1,1.56.25,3.8,3.8,0,0,1,1.11.61,3.34,3.34,0,0,1,.74.82,3.93,3.93,0,0,1,.42.85l-2,.83a2.1,2.1,0,0,0-.61-.9,1.74,1.74,0,0,0-1.2-.4,2.07,2.07,0,0,0-1.22.35,1,1,0,0,0-.48.88,1.13,1.13,0,0,0,.47.91,5,5,0,0,0,1.48.72l.74.25a8.33,8.33,0,0,1,1.31.58,3.91,3.91,0,0,1,1,.77,3.22,3.22,0,0,1,.65,1,3.58,3.58,0,0,1,.22,1.32,3.27,3.27,0,0,1-.37,1.61,3.62,3.62,0,0,1-1,1.1,4.28,4.28,0,0,1-1.32.65A5.16,5.16,0,0,1,238,299.34Z"/><path d="M244,287.18h2.24v11.9H244Z"/><path d="M248.6,287.18h4a7,7,0,0,1,2.54.43,5.63,5.63,0,0,1,1.93,1.22,5.36,5.36,0,0,1,1.22,1.89,6.66,6.66,0,0,1,.42,2.41,6.77,6.77,0,0,1-.42,2.43,5.19,5.19,0,0,1-1.22,1.87,5.63,5.63,0,0,1-1.93,1.22,7.23,7.23,0,0,1-2.54.43h-4Zm3.92,9.77a5.11,5.11,0,0,0,1.73-.27,3.41,3.41,0,0,0,1.24-.78,3.22,3.22,0,0,0,.75-1.2,5.05,5.05,0,0,0,0-3.14,3.34,3.34,0,0,0-.75-1.21,3.39,3.39,0,0,0-1.24-.77,5.11,5.11,0,0,0-1.73-.27h-1.68V297Z"/><path d="M262.79,289.31v2.76h4.77v2.12h-4.77V297h5.3v2.13h-7.55v-11.9h7.55v2.13Z"/><path d="M270.15,287.18h4.34a4.41,4.41,0,0,1,1.62.28,3.83,3.83,0,0,1,1.26.78,3.33,3.33,0,0,1,.8,1.19,3.91,3.91,0,0,1,.29,1.51,3.22,3.22,0,0,1-.2,1.12,3.74,3.74,0,0,1-.55.95,3.82,3.82,0,0,1-.81.74,4,4,0,0,1-1,.51v.12l3.19,4.57v.13h-2.58l-3.07-4.47h-1.05v4.47h-2.24Zm4.32,5.37a1.73,1.73,0,0,0,1.25-.47,1.54,1.54,0,0,0,.49-1.18,1.81,1.81,0,0,0-.1-.61,1.61,1.61,0,0,0-.87-.91,1.88,1.88,0,0,0-.74-.14h-2.11v3.31Z"/><path d="M284.09,299.34a5,5,0,0,1-1.46-.21,4.3,4.3,0,0,1-1.28-.65,4.48,4.48,0,0,1-1-1.06,5.4,5.4,0,0,1-.68-1.45l2.11-.83a3.29,3.29,0,0,0,.82,1.49,2.07,2.07,0,0,0,1.53.59,2.52,2.52,0,0,0,.67-.09,2.06,2.06,0,0,0,.58-.27,1.33,1.33,0,0,0,.41-.44,1.24,1.24,0,0,0,.15-.62,1.35,1.35,0,0,0-.51-1.09,3.11,3.11,0,0,0-.71-.45c-.3-.14-.66-.29-1.09-.45l-.73-.26a7.7,7.7,0,0,1-1-.45,4.19,4.19,0,0,1-.88-.69,3.13,3.13,0,0,1-.66-.93,2.85,2.85,0,0,1-.26-1.23,3,3,0,0,1,.28-1.3,3.1,3.1,0,0,1,.78-1.06,3.57,3.57,0,0,1,1.21-.72,4.57,4.57,0,0,1,1.57-.26,4.23,4.23,0,0,1,1.55.25,3.86,3.86,0,0,1,1.12.61,3.55,3.55,0,0,1,.74.82,3.86,3.86,0,0,1,.41.85l-2,.83a2.29,2.29,0,0,0-.61-.9A1.78,1.78,0,0,0,284,289a2,2,0,0,0-1.21.35,1,1,0,0,0-.48.88,1.12,1.12,0,0,0,.46.91,5.07,5.07,0,0,0,1.48.72l.75.25a8.77,8.77,0,0,1,1.31.58,3.91,3.91,0,0,1,1,.77,3.22,3.22,0,0,1,.65,1,3.58,3.58,0,0,1,.22,1.32,3.27,3.27,0,0,1-.37,1.61,3.52,3.52,0,0,1-1,1.1,4.23,4.23,0,0,1-1.31.65A5.16,5.16,0,0,1,284.09,299.34Z"/><path d="M115,260.24h-6.68v-11.9h1.53v10.44H115Z"/><path d="M119.41,251.83a3.79,3.79,0,0,1,2.68.91,3.22,3.22,0,0,1,1,2.48v5H121.6v-1.13h-.06a2.93,2.93,0,0,1-2.53,1.4,3.28,3.28,0,0,1-2.25-.8,2.57,2.57,0,0,1-.91-2,2.42,2.42,0,0,1,1-2,4.09,4.09,0,0,1,2.55-.74,4.51,4.51,0,0,1,2.24.49v-.34a1.74,1.74,0,0,0-.63-1.36,2.17,2.17,0,0,0-1.48-.56,2.32,2.32,0,0,0-2,1.08l-1.35-.84A3.74,3.74,0,0,1,119.41,251.83Zm-2,5.92a1.23,1.23,0,0,0,.51,1,1.89,1.89,0,0,0,1.19.39,2.43,2.43,0,0,0,1.72-.71,2.26,2.26,0,0,0,.75-1.68,3.1,3.1,0,0,0-2-.56,2.63,2.63,0,0,0-1.55.44A1.33,1.33,0,0,0,117.43,257.75Z"/><path d="M129.1,260.51a3.45,3.45,0,0,1-1.64-.39,2.88,2.88,0,0,1-1.14-1h-.06v1.13h-1.47v-11.9h1.53v3.76l-.06,1.13h.06a3,3,0,0,1,1.14-1,3.57,3.57,0,0,1,1.64-.38,3.49,3.49,0,0,1,2.72,1.26,4.44,4.44,0,0,1,1.15,3.08,4.37,4.37,0,0,1-1.15,3.07A3.47,3.47,0,0,1,129.1,260.51Zm-.25-1.4a2.39,2.39,0,0,0,1.84-.83,3,3,0,0,0,.75-2.11,3,3,0,0,0-.75-2.11,2.39,2.39,0,0,0-1.84-.83,2.42,2.42,0,0,0-1.86.83,3.06,3.06,0,0,0-.73,2.11,3.11,3.11,0,0,0,.73,2.13A2.43,2.43,0,0,0,128.85,259.11Z"/><path d="M138,260.51a3.9,3.9,0,0,1-3-1.23,4.37,4.37,0,0,1-1.16-3.11,4.45,4.45,0,0,1,1.13-3.1,4.06,4.06,0,0,1,5.77-.07,4.68,4.68,0,0,1,1.08,3.29l0,.16h-6.4a2.65,2.65,0,0,0,.8,1.93,2.58,2.58,0,0,0,4.12-.73l1.36.66a3.94,3.94,0,0,1-1.52,1.61A4.19,4.19,0,0,1,138,260.51Zm-2.44-5.32h4.67a2.1,2.1,0,0,0-.69-1.41,2.42,2.42,0,0,0-1.67-.55,2.25,2.25,0,0,0-1.49.53A2.53,2.53,0,0,0,135.58,255.19Z"/><path d="M144.8,248.34v11.9h-1.53v-11.9Z"/><path d="M152.81,258a2.22,2.22,0,0,1-.93,1.8,3.71,3.71,0,0,1-2.34.73,3.77,3.77,0,0,1-2.16-.64,3.51,3.51,0,0,1-1.33-1.69l1.36-.58a2.58,2.58,0,0,0,.87,1.14,2.12,2.12,0,0,0,1.26.4,2.23,2.23,0,0,0,1.22-.31.89.89,0,0,0,.49-.75c0-.52-.4-.9-1.2-1.15l-1.39-.35c-1.59-.39-2.38-1.16-2.38-2.29a2.09,2.09,0,0,1,.91-1.78,4.12,4.12,0,0,1,4.27-.16,2.81,2.81,0,0,1,1.22,1.38l-1.36.56a1.73,1.73,0,0,0-.76-.8,2.32,2.32,0,0,0-1.17-.3,1.94,1.94,0,0,0-1.07.3.87.87,0,0,0-.48.73c0,.47.44.8,1.31,1l1.23.32C152,255.94,152.81,256.75,152.81,258Z"/></g></svg>