<svg xmlns="http://www.w3.org/2000/svg" viewBox="0 0 1641.07 744.64"><defs><style>.cls-1{fill:#fff;}.cls-2{fill:#263238;}.cls-3{fill:#c0bdff;}</style></defs><g id="Layer_2" data-name="Layer 2"><rect class="cls-1" width="1641.07" height="744.64" rx="45.33"/><path class="cls-2" d="M153.19,119.81a20.22,20.22,0,0,1-.12-2.39q0-2.51-.14-6.58c-.07-5.77-.16-13.76-.28-23.43l.54.54L106,88.08l.67-.67h0v4.3c0,1.42,0,2.84,0,4.25q0,4.22,0,8.29c0,5.42,0,10.62,0,15.55l-.61-.61,33.82.3,9.76.17,2.64.07a7.35,7.35,0,0,1,.95.07,26.76,26.76,0,0,1-3.32.15l-9.63.16-34.22.31h-.62v-.62c0-4.93,0-10.13,0-15.55,0-2.72,0-5.48,0-8.29V87.42h0c-.6.6.82-.82.68-.67l47.17.13h.55v.54c-.12,9.81-.21,17.92-.28,23.77-.06,2.67-.1,4.82-.14,6.45A14,14,0,0,1,153.19,119.81Z"/><path class="cls-2" d="M153.19,87.41a9.52,9.52,0,0,1-1.67,1.9c-1.14,1.16-2.82,2.81-4.92,4.82-4.18,4-10,9.52-16.54,15.52-1.82,0-.51,0-.92,0h0l0,0-.07-.07-.16-.14-.3-.28-.6-.56-1.2-1.1-2.34-2.17-4.4-4.11-7.4-7c-2.09-2-3.77-3.66-4.91-4.82S106,87.48,106,87.41a9.48,9.48,0,0,1,2,1.52c1.25,1,3,2.58,5.2,4.5l7.59,6.81,4.46,4.05,2.35,2.15,1.2,1.1.6.56.31.28.15.14.07.07,0,0,0,0h0c-.4,0,.92,0-.9,0,6.51-6,12.46-11.38,16.81-15.23,2.18-1.92,3.95-3.46,5.2-4.5A9.48,9.48,0,0,1,153.19,87.41Z"/><path class="cls-2" d="M121.73,101.89c.28.25-3,4.49-7.39,9.47s-8.11,8.83-8.39,8.59,3-4.49,7.38-9.47S121.45,101.65,121.73,101.89Z"/><path class="cls-2" d="M153.5,120.19c-.29.23-3.95-3.83-8.16-9.07s-7.4-9.68-7.11-9.91,3.94,3.82,8.16,9.07S153.78,120,153.5,120.19Z"/><path class="cls-2" d="M333.18,98.75c0,.38-33.29.68-74.33.68s-74.34-.3-74.34-.68,33.28-.67,74.34-.67S333.18,98.38,333.18,98.75Z"/><path class="cls-2" d="M185.16,158.71a8,8,0,0,1,1.82-.15l5.35-.14,19.68-.25h.26l.17.22c2.63,3.46,5.54,7.31,8.66,11.41l.12.16v.21c0,5.23,0,10.91.05,16.83v.67h-8.58l-35.41-.1h-.57V187c.06-5.82.1-11,.14-15.39v-.13l.06-.1,6-9.45a26.85,26.85,0,0,1,2.22-3.21,5.73,5.73,0,0,1-.47,1c-.41.71-.89,1.57-1.47,2.61-1.4,2.38-3.27,5.58-5.58,9.53l.07-.22c0,4.38.08,9.57.14,15.39l-.57-.57,35.41-.1h7.91l-.67.67c0-5.92,0-11.6,0-16.83l.12.38L211.58,159l.43.22L192.56,159l-5.44-.14A13,13,0,0,1,185.16,158.71Z"/><path class="cls-2" d="M220.6,171c0,.13-1.35.31-3.73.52s-5.78.45-9.85.7l.56-.56a11.53,11.53,0,0,1-2,6,8.17,8.17,0,0,1-2.71,2.36,8.81,8.81,0,0,1-3.61.85,8.93,8.93,0,0,1-7.08-3,13,13,0,0,1-2.9-6.16l.56.48c-3.77-.06-6.9-.15-9.09-.24s-3.44-.21-3.44-.34a13.56,13.56,0,0,1,3.44-.33c2.19-.09,5.32-.18,9.09-.24h.45l.11.48a12.48,12.48,0,0,0,2.74,5.49,8,8,0,0,0,9.13,1.81,6.85,6.85,0,0,0,2.26-1.94,10.78,10.78,0,0,0,1.91-5.29l.05-.55H207c4.07-.13,7.48-.21,9.87-.22A15.59,15.59,0,0,1,220.6,171Z"/><path class="cls-2" d="M317.63,160.05a8.63,8.63,0,0,1,2.2-.21v.42c-5.26.27-21.14.46-39.87.46-11.62,0-22.14-.07-29.75-.2l-9-.21a16.06,16.06,0,0,1-3.31-.26,16.06,16.06,0,0,1,3.31-.26l9-.22c7.61-.12,18.13-.19,29.75-.19,18.73,0,34.61.19,39.87.46v.42A8.63,8.63,0,0,1,317.63,160.05Z"/><path class="cls-2" d="M317.63,176.94a8.43,8.43,0,0,1,2.2-.2v.41c-5.26.27-21.14.47-39.87.47-11.62,0-22.14-.08-29.75-.2l-9-.21a14.73,14.73,0,0,1-3.31-.27,16.06,16.06,0,0,1,3.31-.26l9-.21c7.61-.12,18.13-.2,29.75-.2,18.73,0,34.61.2,39.87.47v.41A7.58,7.58,0,0,1,317.63,176.94Z"/><path class="cls-2" d="M317.63,193.84a8.63,8.63,0,0,1,2.2-.21v.42c-5.26.27-21.14.46-39.87.46-11.62,0-22.14-.07-29.75-.19l-9-.22a16.06,16.06,0,0,1-3.31-.26,16.06,16.06,0,0,1,3.31-.26l9-.22c7.61-.12,18.13-.19,29.75-.19,18.73,0,34.61.19,39.87.46v.42A8.63,8.63,0,0,1,317.63,193.84Z"/><path class="cls-2" d="M185.16,279.61a8.58,8.58,0,0,1,1.82-.14l5.35-.14,19.68-.26h.26l.17.22,8.66,11.41.12.16v.21c0,5.22,0,10.9.05,16.83v.66h-8.58l-35.41-.11h-.57v-.56c.06-5.83.1-11,.14-15.4v-.12l.06-.1c2.5-3.92,4.52-7.09,6-9.46a26.85,26.85,0,0,1,2.22-3.21,5,5,0,0,1-.47,1l-1.47,2.61c-1.4,2.38-3.27,5.58-5.58,9.53l.07-.22c0,4.39.08,9.57.14,15.4l-.57-.57,35.41-.11h7.91l-.67.67c0-5.93,0-11.61,0-16.83l.12.37-8.52-11.5.43.21-19.45-.25-5.44-.14A10.75,10.75,0,0,1,185.16,279.61Z"/><path class="cls-2" d="M220.6,291.87a15.29,15.29,0,0,1-3.73.52c-2.38.21-5.78.45-9.85.7l.56-.56a11.59,11.59,0,0,1-2,6,8,8,0,0,1-2.71,2.35,9.21,9.21,0,0,1-10.69-2.13,13,13,0,0,1-2.9-6.16l.56.47c-3.77-.06-6.9-.14-9.09-.24a13.56,13.56,0,0,1-3.44-.33,13.56,13.56,0,0,1,3.44-.33c2.19-.1,5.32-.18,9.09-.24h.45l.11.49a12.5,12.5,0,0,0,2.74,5.48,8,8,0,0,0,9.13,1.81,6.7,6.7,0,0,0,2.26-1.93,10.78,10.78,0,0,0,1.91-5.29l.05-.55.51,0c4.07-.13,7.48-.2,9.87-.21S220.59,291.74,220.6,291.87Z"/><path class="cls-2" d="M317.63,281a8.43,8.43,0,0,1,2.2-.2v.41c-5.26.27-21.14.47-39.87.47-11.62,0-22.14-.08-29.75-.2l-9-.21a14.73,14.73,0,0,1-3.31-.27,16.06,16.06,0,0,1,3.31-.26l9-.21c7.61-.12,18.13-.2,29.75-.2,18.73,0,34.61.2,39.87.47v.41A7.58,7.58,0,0,1,317.63,281Z"/><path class="cls-2" d="M317.63,297.85a8.63,8.63,0,0,1,2.2-.21v.42c-5.26.27-21.14.46-39.87.46-11.62,0-22.14-.07-29.75-.19l-9-.22a16.06,16.06,0,0,1-3.31-.26,16.06,16.06,0,0,1,3.31-.26l9-.21c7.61-.13,18.13-.2,29.75-.2,18.73,0,34.61.19,39.87.46v.42A8.63,8.63,0,0,1,317.63,297.85Z"/><path class="cls-2" d="M317.63,314.75a7.58,7.58,0,0,1,2.2-.21V315c-5.26.27-21.14.47-39.87.47-11.62,0-22.14-.08-29.75-.2l-9-.21a16.06,16.06,0,0,1-3.31-.26,14.73,14.73,0,0,1,3.31-.27l9-.21c7.61-.12,18.13-.2,29.75-.2,18.73,0,34.61.2,39.87.47V315A8.43,8.43,0,0,1,317.63,314.75Z"/><path class="cls-2" d="M185.16,400.52a7.78,7.78,0,0,1,1.82-.14l5.35-.15L212,400h.26l.17.22c2.63,3.46,5.54,7.31,8.66,11.41l.12.16V412c0,5.23,0,10.91.05,16.83v.67h-8.58l-35.41-.1h-.57v-.57c.06-5.82.1-11,.14-15.39v-.13l.06-.1,6-9.45a26.85,26.85,0,0,1,2.22-3.21,5.33,5.33,0,0,1-.47,1c-.41.71-.89,1.57-1.47,2.61-1.4,2.38-3.27,5.58-5.58,9.53l.07-.22c0,4.39.08,9.57.14,15.39l-.57-.56,35.41-.11h7.91l-.67.67c0-5.92,0-11.6,0-16.83l.12.38-8.52-11.51.43.22-19.45-.26-5.44-.14A11.49,11.49,0,0,1,185.16,400.52Z"/><path class="cls-2" d="M220.6,412.77c0,.13-1.35.31-3.73.52s-5.78.46-9.85.7l.56-.56a11.59,11.59,0,0,1-2,6,8.14,8.14,0,0,1-2.71,2.35,8.81,8.81,0,0,1-3.61.85,8.93,8.93,0,0,1-7.08-3,13,13,0,0,1-2.9-6.16l.56.48c-3.77-.06-6.9-.14-9.09-.24a13.56,13.56,0,0,1-3.44-.33,13,13,0,0,1,3.44-.33c2.19-.1,5.32-.18,9.09-.24h.45l.11.48a12.48,12.48,0,0,0,2.74,5.49,8,8,0,0,0,9.13,1.81,6.82,6.82,0,0,0,2.26-1.93,10.78,10.78,0,0,0,1.91-5.3l.05-.54.51,0c4.07-.13,7.48-.21,9.87-.22A15.59,15.59,0,0,1,220.6,412.77Z"/><path class="cls-2" d="M317.63,401.86a8.63,8.63,0,0,1,2.2-.21v.42c-5.26.27-21.14.46-39.87.46-11.62,0-22.14-.07-29.75-.19l-9-.22a16.06,16.06,0,0,1-3.31-.26,16.06,16.06,0,0,1,3.31-.26l9-.21c7.61-.13,18.13-.2,29.75-.2,18.73,0,34.61.19,39.87.46v.42A8.63,8.63,0,0,1,317.63,401.86Z"/><path class="cls-2" d="M317.63,418.76a8.07,8.07,0,0,1,2.2-.21V419c-5.26.27-21.14.47-39.87.47-11.62,0-22.14-.08-29.75-.2l-9-.21a16.06,16.06,0,0,1-3.31-.26,14.73,14.73,0,0,1,3.31-.27l9-.21c7.61-.12,18.13-.2,29.75-.2,18.73,0,34.61.2,39.87.47V419A8.43,8.43,0,0,1,317.63,418.76Z"/><path class="cls-2" d="M317.63,435.65a8.43,8.43,0,0,1,2.2-.2v.41c-5.26.27-21.14.46-39.87.46-11.62,0-22.14-.07-29.75-.19l-9-.22a16.06,16.06,0,0,1-3.31-.26,16.06,16.06,0,0,1,3.31-.26l9-.21c7.61-.12,18.13-.2,29.75-.2,18.73,0,34.61.2,39.87.47v.41A8.63,8.63,0,0,1,317.63,435.65Z"/><path class="cls-2" d="M362.08,677.35s0-.54-.06-1.58,0-2.62-.07-4.62c0-4.11-.06-10.1-.1-17.77,0-15.49,0-37.81,0-65.38.12-55.2.67-131.45,1.45-215.67s1.37-160.46,1.84-215.7c.18-27.56.32-49.88.42-65.37.06-7.68.11-13.66.15-17.77,0-2,.05-3.53.07-4.62s.07-1.57.07-1.57,0,.53.07,1.57,0,2.63.06,4.62c0,4.11.06,10.1.1,17.77,0,15.49,0,37.81,0,65.37-.12,55.21-.67,131.47-1.45,215.71S363.26,532.77,362.79,588c-.18,27.56-.32,49.88-.42,65.37-.06,7.68-.11,13.66-.14,17.77,0,2-.06,3.53-.08,4.62S362.08,677.35,362.08,677.35Z"/><polygon class="cls-2" points="116.16 170.64 130.66 189.56 143.04 170.64 116.16 170.64"/><path class="cls-2" d="M1515.57,169a21.09,21.09,0,0,1-.12-2.44c0-1.7-.08-3.92-.14-6.69-.07-5.86-.17-14-.29-23.81l.55.55-48,.13.68-.68h0v8.69q0,4.28,0,8.42c0,5.51,0,10.8,0,15.82l-.62-.63,34.38.31,9.92.17,2.68.07a5.06,5.06,0,0,1,1,.08,33.18,33.18,0,0,1-3.38.14l-9.78.17-34.79.31H1467V169c0-5,0-10.31,0-15.82,0-2.76,0-5.57,0-8.42V136h0c-.62.61.83-.83.68-.68l48,.13h.56V136c-.12,10-.22,18.21-.29,24.16-.06,2.71-.1,4.89-.14,6.56A14.84,14.84,0,0,1,1515.57,169Z"/><path class="cls-2" d="M1515.57,136a9.83,9.83,0,0,1-1.7,1.93c-1.16,1.18-2.87,2.85-5,4.9-4.26,4.09-10.2,9.67-16.82,15.77h-1l0,0,0,0-.08-.07-.16-.14-.31-.28-.61-.57-1.22-1.13-2.37-2.2-4.47-4.18-7.53-7.13c-2.12-2.05-3.83-3.72-5-4.9s-1.77-1.86-1.7-1.93a9.45,9.45,0,0,1,2.06,1.54c1.27,1.06,3.08,2.62,5.29,4.58l7.72,6.92,4.53,4.12,2.38,2.18,1.22,1.12.62.57.31.29.15.14.08.07,0,0h0c-.41,0,.93,0-.92,0,6.62-6.1,12.67-11.57,17.09-15.48,2.21-2,4-3.52,5.29-4.58A9.45,9.45,0,0,1,1515.57,136Z"/><path class="cls-2" d="M1483.59,150.75c.28.25-3.08,4.56-7.51,9.62s-8.25,9-8.53,8.73,3.07-4.56,7.5-9.63S1483.3,150.5,1483.59,150.75Z"/><path class="cls-2" d="M1515.88,169.35c-.29.24-4-3.89-8.29-9.22s-7.52-9.84-7.23-10.08,4,3.89,8.29,9.22S1516.17,169.11,1515.88,169.35Z"/><path class="cls-2" d="M1535.88,99.62c0,.38-705.32.69-846.46.69S433.8,100,433.8,99.62s114.42-.68,255.62-.68S1535.88,99.25,1535.88,99.62Z"/><path class="cls-2" d="M1535.88,213.57c0,.37-705.32.68-846.46.68s-255.62-.31-255.62-.68,114.42-.69,255.62-.69S1535.88,213.19,1535.88,213.57Z"/><path class="cls-2" d="M468.44,140.59s.3,0,.82-.19a3.06,3.06,0,0,0,1.76-1.47c.53-.89.26-2.23.3-3.73s0-3.22-.05-5.1,0-4,0-6.19c0-.55,0-1.12,0-1.69a4.84,4.84,0,0,0-.14-1.64,2.79,2.79,0,0,0-2.45-1.88l-16.24,0A2.74,2.74,0,0,0,449.7,121c-.1,1.27,0,2.75-.05,4.08,0,2.72,0,5.35,0,7.85,0,1.25,0,2.47,0,3.66a6.8,6.8,0,0,0,.08,1.66,2.82,2.82,0,0,0,.75,1.31,2.76,2.76,0,0,0,1.28.71,6.74,6.74,0,0,0,1.51.09l3,0,9,.11,2.43.07a3.31,3.31,0,0,1,.85.07,4,4,0,0,1-.85.07l-2.43.07-9,.11-3,0a7.17,7.17,0,0,1-1.64-.08,3.36,3.36,0,0,1-1.56-.84,3.45,3.45,0,0,1-.93-1.59,7.55,7.55,0,0,1-.12-1.81c0-1.19,0-2.41,0-3.66,0-2.5,0-5.13,0-7.85,0-.68,0-1.36,0-2.06a20,20,0,0,1,.06-2.15,3.44,3.44,0,0,1,3.38-2.81l16.29,0a3.39,3.39,0,0,1,3,2.34,5.33,5.33,0,0,1,.16,1.83v1.69c0,2.22,0,4.29-.05,6.19s0,3.59,0,5.1q0,1.13,0,2.1a3.31,3.31,0,0,1-.43,1.76,3.13,3.13,0,0,1-2,1.48A2.17,2.17,0,0,1,468.44,140.59Z"/><path class="cls-2" d="M722.16,149.46c0,.38-39.43.69-88,.69s-88.06-.31-88.06-.69,39.42-.68,88.06-.68S722.16,149.09,722.16,149.46Z"/><path class="cls-2" d="M832.23,168.89c0,.38-64.07.68-143.08.68s-143.1-.3-143.1-.68,64.06-.68,143.1-.68S832.23,168.51,832.23,168.89Z"/><rect class="cls-3" x="1194.69" y="134.84" width="223.54" height="36.6" rx="13.35"/><path class="cls-2" d="M1515.57,315.38a21.09,21.09,0,0,1-.12-2.44c0-1.69-.08-3.92-.14-6.69-.07-5.86-.17-14-.29-23.81l.55.55-48,.13.68-.68h0v8.69c0,2.85,0,5.67,0,8.42,0,5.51,0,10.81,0,15.82l-.62-.63,34.38.31,9.92.17,2.68.07a5.06,5.06,0,0,1,1,.08,29.7,29.7,0,0,1-3.38.14l-9.78.17-34.79.31H1467v-.63c0-5,0-10.31,0-15.82,0-2.75,0-5.57,0-8.42v-8.69h0c-.62.61.83-.83.68-.68l48,.13h.56v.55c-.12,10-.22,18.21-.29,24.16-.06,2.71-.1,4.9-.14,6.56A14.68,14.68,0,0,1,1515.57,315.38Z"/><path class="cls-2" d="M1515.57,282.44a9.83,9.83,0,0,1-1.7,1.93c-1.16,1.18-2.87,2.85-5,4.9-4.26,4.09-10.2,9.67-16.82,15.78-1.86,0-.52,0-.94,0h0l0,0,0,0-.08-.08-.16-.14-.31-.28-.61-.57-1.22-1.13-2.37-2.2-4.47-4.18-7.53-7.13c-2.12-2-3.83-3.72-5-4.9s-1.77-1.86-1.7-1.93a9.45,9.45,0,0,1,2.06,1.54c1.27,1.06,3.08,2.62,5.29,4.58l7.72,6.92,4.53,4.12,2.38,2.18,1.22,1.13.62.56.31.29.15.14.08.07,0,0h0c-.41,0,.93,0-.92,0,6.62-6.1,12.67-11.57,17.09-15.48,2.21-2,4-3.52,5.29-4.58A9.45,9.45,0,0,1,1515.57,282.44Z"/><path class="cls-2" d="M1483.59,297.16c.28.25-3.08,4.56-7.51,9.62s-8.25,9-8.53,8.73,3.07-4.56,7.5-9.62S1483.3,296.91,1483.59,297.16Z"/><path class="cls-2" d="M1515.88,315.76c-.29.24-4-3.89-8.29-9.22s-7.52-9.84-7.23-10.08,4,3.89,8.29,9.22S1516.17,315.52,1515.88,315.76Z"/><path class="cls-2" d="M1535.88,246c0,.38-705.32.69-846.46.69S433.8,246.41,433.8,246s114.42-.68,255.62-.68S1535.88,245.66,1535.88,246Z"/><path class="cls-2" d="M1535.88,360c0,.37-705.32.68-846.46.68S433.8,360.35,433.8,360s114.42-.69,255.62-.69S1535.88,359.6,1535.88,360Z"/><path class="cls-2" d="M468.44,287s.3,0,.82-.19a3.06,3.06,0,0,0,1.76-1.47c.53-.89.26-2.22.3-3.72s0-3.23-.05-5.11,0-4,0-6.19c0-.55,0-1.12,0-1.69a4.86,4.86,0,0,0-.14-1.64,2.79,2.79,0,0,0-2.45-1.88l-16.24,0a2.74,2.74,0,0,0-2.68,2.23c-.1,1.27,0,2.75-.05,4.08,0,2.72,0,5.35,0,7.85,0,1.25,0,2.47,0,3.66a6.8,6.8,0,0,0,.08,1.66,2.76,2.76,0,0,0,2,2,6.2,6.2,0,0,0,1.51.09l3,0,9,.11,2.43.07a3.31,3.31,0,0,1,.85.07,4,4,0,0,1-.85.07l-2.43.07-9,.11-3,0a6.65,6.65,0,0,1-1.64-.08,3.36,3.36,0,0,1-1.56-.84,3.45,3.45,0,0,1-.93-1.59A7.55,7.55,0,0,1,449,283c0-1.19,0-2.41,0-3.66,0-2.5,0-5.13,0-7.85,0-.68,0-1.36,0-2.05a20.15,20.15,0,0,1,.06-2.16,3.45,3.45,0,0,1,3.38-2.81l16.29,0a3.39,3.39,0,0,1,3,2.34,5.33,5.33,0,0,1,.16,1.83v1.69c0,2.22,0,4.29-.05,6.19s0,3.59,0,5.11c0,.74,0,1.44,0,2.09a3.31,3.31,0,0,1-.43,1.76,3.13,3.13,0,0,1-2,1.48A2.17,2.17,0,0,1,468.44,287Z"/><path class="cls-2" d="M722.16,295.87c0,.38-39.43.69-88,.69s-88.06-.31-88.06-.69,39.42-.68,88.06-.68S722.16,295.5,722.16,295.87Z"/><path class="cls-2" d="M832.23,315.3c0,.38-64.07.68-143.08.68s-143.1-.3-143.1-.68,64.06-.68,143.1-.68S832.23,314.92,832.23,315.3Z"/><rect class="cls-3" x="1194.69" y="282.56" width="223.54" height="36.6" rx="13.35"/><path class="cls-2" d="M1515.57,461.79a21.09,21.09,0,0,1-.12-2.44c0-1.69-.08-3.92-.14-6.68-.07-5.87-.17-14-.29-23.82l.55.55-48,.13.68-.68h0v8.69c0,2.85,0,5.67,0,8.42,0,5.51,0,10.81,0,15.82l-.62-.63,34.38.31,9.92.17,2.68.07a5.06,5.06,0,0,1,1,.08,30.75,30.75,0,0,1-3.38.15l-9.78.16-34.79.31H1467v-.63c0-5,0-10.31,0-15.82,0-2.75,0-5.57,0-8.42v-8.69h0c-.62.61.83-.83.68-.68l48,.13h.56v.55c-.12,10-.22,18.21-.29,24.16-.06,2.71-.1,4.9-.14,6.56A14.68,14.68,0,0,1,1515.57,461.79Z"/><path class="cls-2" d="M1515.57,428.85a9.83,9.83,0,0,1-1.7,1.93c-1.16,1.18-2.87,2.85-5,4.9-4.26,4.09-10.2,9.67-16.82,15.78-1.86,0-.52,0-.94,0h0l0,0,0,0-.08-.07-.16-.15-.31-.28-.61-.57-1.22-1.12-2.37-2.21-4.47-4.18-7.53-7.13c-2.12-2.05-3.83-3.72-5-4.9s-1.77-1.86-1.7-1.93a9.45,9.45,0,0,1,2.06,1.54c1.27,1.06,3.08,2.62,5.29,4.58l7.72,6.92,4.53,4.12,2.38,2.19,1.22,1.12.62.56.31.29.15.14.08.07,0,0,0,0h0c-.41,0,.93,0-.92,0,6.62-6.1,12.67-11.57,17.09-15.48,2.21-2,4-3.52,5.29-4.58A9.45,9.45,0,0,1,1515.57,428.85Z"/><path class="cls-2" d="M1483.59,443.57c.28.25-3.08,4.56-7.51,9.63s-8.25,9-8.53,8.72,3.07-4.56,7.5-9.62S1483.3,443.32,1483.59,443.57Z"/><path class="cls-2" d="M1515.88,462.17c-.29.24-4-3.89-8.29-9.22s-7.52-9.84-7.23-10.08,4,3.9,8.29,9.22S1516.17,461.93,1515.88,462.17Z"/><path class="cls-2" d="M1535.88,392.44c0,.38-705.32.69-846.46.69s-255.62-.31-255.62-.69,114.42-.68,255.62-.68S1535.88,392.07,1535.88,392.44Z"/><path class="cls-2" d="M1535.88,506.39c0,.37-705.32.68-846.46.68s-255.62-.31-255.62-.68,114.42-.69,255.62-.69S1535.88,506,1535.88,506.39Z"/><path class="cls-2" d="M468.44,433.41s.3,0,.82-.19a3.06,3.06,0,0,0,1.76-1.47c.53-.89.26-2.22.3-3.72s0-3.23-.05-5.11,0-4,0-6.18c0-.56,0-1.13,0-1.7a4.86,4.86,0,0,0-.14-1.64,2.77,2.77,0,0,0-2.45-1.87H452.38a2.74,2.74,0,0,0-2.68,2.23c-.1,1.27,0,2.75-.05,4.09,0,2.71,0,5.34,0,7.84,0,1.25,0,2.47,0,3.66a6.8,6.8,0,0,0,.08,1.66,2.76,2.76,0,0,0,2,2,6.2,6.2,0,0,0,1.51.09l3,0,9,.11,2.43.07a4,4,0,0,1,.85.07,4,4,0,0,1-.85.07l-2.43.07-9,.11-3,0a7.21,7.21,0,0,1-1.64-.09,3.36,3.36,0,0,1-1.56-.84,3.45,3.45,0,0,1-.93-1.59,7.52,7.52,0,0,1-.12-1.81c0-1.19,0-2.41,0-3.66,0-2.5,0-5.13,0-7.84,0-.69,0-1.37,0-2.06a20.15,20.15,0,0,1,.06-2.16,3.45,3.45,0,0,1,3.38-2.81l16.29,0a3.4,3.4,0,0,1,3,2.34,5.33,5.33,0,0,1,.16,1.83v1.7c0,2.21,0,4.28-.05,6.18s0,3.59,0,5.11c0,.74,0,1.44,0,2.09a3.31,3.31,0,0,1-.43,1.76,3.09,3.09,0,0,1-2,1.48A2.17,2.17,0,0,1,468.44,433.41Z"/><path class="cls-2" d="M722.16,442.28c0,.38-39.43.69-88,.69s-88.06-.31-88.06-.69,39.42-.68,88.06-.68S722.16,441.91,722.16,442.28Z"/><path class="cls-2" d="M832.23,461.71c0,.38-64.07.68-143.08.68s-143.1-.3-143.1-.68,64.06-.68,143.1-.68S832.23,461.33,832.23,461.71Z"/><rect class="cls-3" x="1194.69" y="430.28" width="223.54" height="36.6" rx="13.35"/><path class="cls-2" d="M1515.57,608.2a21.09,21.09,0,0,1-.12-2.44c0-1.69-.08-3.92-.14-6.68-.07-5.87-.17-14-.29-23.82l.55.55-48,.13c-.15.15,1.29-1.29.68-.67h0V584q0,4.29,0,8.43c0,5.5,0,10.8,0,15.81l-.62-.63,34.38.31,9.92.17,2.68.07a5.06,5.06,0,0,1,1,.08,30.75,30.75,0,0,1-3.38.15l-9.78.16-34.79.31H1467v-.63c0-5,0-10.31,0-15.81,0-2.76,0-5.57,0-8.43v-8.69h0c-.62.6.83-.84.68-.69l48,.13h.56v.55c-.12,10-.22,18.21-.29,24.16-.06,2.71-.1,4.9-.14,6.56A14.68,14.68,0,0,1,1515.57,608.2Z"/><path class="cls-2" d="M1515.57,575.26a9.83,9.83,0,0,1-1.7,1.93c-1.16,1.18-2.87,2.86-5,4.9-4.26,4.09-10.2,9.67-16.82,15.78-1.86,0-.52,0-.94,0h0l0,0,0,0-.08-.07-.16-.15-.31-.28-.61-.57-1.22-1.12-2.37-2.21c-1.54-1.44-3-2.83-4.47-4.18-2.77-2.61-5.3-5-7.53-7.13s-3.83-3.72-5-4.9-1.77-1.86-1.7-1.93a9.45,9.45,0,0,1,2.06,1.54c1.27,1.06,3.08,2.63,5.29,4.58l7.72,6.92,4.53,4.12,2.38,2.19,1.22,1.12.62.56.31.29.15.14.08.07,0,0,0,0h-.91c6.62-6.1,12.67-11.57,17.09-15.48,2.21-2,4-3.52,5.29-4.58A9.45,9.45,0,0,1,1515.57,575.26Z"/><path class="cls-2" d="M1483.59,590c.28.25-3.08,4.56-7.51,9.63s-8.25,9-8.53,8.72,3.07-4.55,7.5-9.62S1483.3,589.73,1483.59,590Z"/><path class="cls-2" d="M1515.88,608.58c-.29.24-4-3.89-8.29-9.22s-7.52-9.84-7.23-10.07,4,3.89,8.29,9.22S1516.17,608.35,1515.88,608.58Z"/><path class="cls-2" d="M1535.88,538.86c0,.37-705.32.68-846.46.68s-255.62-.31-255.62-.68,114.42-.69,255.62-.69S1535.88,538.48,1535.88,538.86Z"/><path class="cls-2" d="M1535.88,652.8c0,.38-705.32.68-846.46.68s-255.62-.3-255.62-.68,114.42-.68,255.62-.68S1535.88,652.42,1535.88,652.8Z"/><path class="cls-2" d="M468.44,579.82s.3,0,.82-.19a3.06,3.06,0,0,0,1.76-1.47c.53-.89.26-2.22.3-3.72s0-3.23-.05-5.11,0-4,0-6.18c0-.56,0-1.13,0-1.7a4.86,4.86,0,0,0-.14-1.64,2.77,2.77,0,0,0-2.45-1.87H452.38a2.74,2.74,0,0,0-2.68,2.23c-.1,1.27,0,2.76-.05,4.09,0,2.72,0,5.34,0,7.84,0,1.25,0,2.47,0,3.66a6.8,6.8,0,0,0,.08,1.66,2.8,2.8,0,0,0,2,2,7.39,7.39,0,0,0,1.51.09l3,0,9,.11,2.43.07a4,4,0,0,1,.85.07,3.31,3.31,0,0,1-.85.07l-2.43.07-9,.11-3,0a7.21,7.21,0,0,1-1.64-.09,3.36,3.36,0,0,1-1.56-.84,3.47,3.47,0,0,1-.93-1.58,7.63,7.63,0,0,1-.12-1.82c0-1.19,0-2.41,0-3.66,0-2.5,0-5.12,0-7.84,0-.68,0-1.37,0-2.06a20.15,20.15,0,0,1,.06-2.16,3.46,3.46,0,0,1,3.38-2.81l16.29,0a3.4,3.4,0,0,1,3,2.34,5.35,5.35,0,0,1,.16,1.83v1.7c0,2.21,0,4.28-.05,6.18s0,3.59,0,5.11c0,.74,0,1.44,0,2.09a3.31,3.31,0,0,1-.43,1.76,3.09,3.09,0,0,1-2,1.48A2.17,2.17,0,0,1,468.44,579.82Z"/><path class="cls-2" d="M722.16,588.7c0,.37-39.43.68-88,.68s-88.06-.31-88.06-.68,39.42-.69,88.06-.69S722.16,588.32,722.16,588.7Z"/><path class="cls-2" d="M832.23,608.12c0,.38-64.07.69-143.08.69s-143.1-.31-143.1-.69,64.06-.68,143.1-.68S832.23,607.75,832.23,608.12Z"/><rect class="cls-3" x="1194.69" y="578" width="223.54" height="36.6" rx="13.35"/><path d="M1250.13,149.36v2.73h4.72v2.11h-4.72v2.73h5.25V159h-7.47V147.25h7.47v2.11Z"/><path d="M1262.68,152.57h5.78a4.13,4.13,0,0,1,.08.47,5.4,5.4,0,0,1,0,.56,6.53,6.53,0,0,1-.34,2.14,5.06,5.06,0,0,1-1.09,1.8,5.55,5.55,0,0,1-1.89,1.3,6.62,6.62,0,0,1-2.52.46,6.46,6.46,0,0,1-2.41-.46,6.06,6.06,0,0,1-2-1.29,6.19,6.19,0,0,1-1.33-2,6.12,6.12,0,0,1,3.31-8.15,6.46,6.46,0,0,1,2.41-.46,6.29,6.29,0,0,1,2.56.5,5.54,5.54,0,0,1,1.93,1.36l-1.53,1.5a3.77,3.77,0,0,0-3-1.25,4.12,4.12,0,0,0-1.53.28,3.81,3.81,0,0,0-2.13,2.09,4.52,4.52,0,0,0,0,3.34,3.73,3.73,0,0,0,.87,1.28,3.93,3.93,0,0,0,1.27.81,4.23,4.23,0,0,0,1.55.29,4.16,4.16,0,0,0,1.59-.27,3.68,3.68,0,0,0,1.11-.7,2.75,2.75,0,0,0,.57-.75,4.3,4.3,0,0,0,.36-1h-3.7Z"/><path d="M1270.15,153h5.58v1.91h-5.58Z"/><path d="M1283.41,159.3a6.13,6.13,0,0,1-4.39-1.79,6,6,0,0,1-1.29-2,6.06,6.06,0,0,1-.47-2.41,6.13,6.13,0,0,1,.47-2.41,6,6,0,0,1,3.24-3.26,6.44,6.44,0,0,1,4.88,0,6,6,0,0,1,3.24,3.26,6.13,6.13,0,0,1,.47,2.41,6.06,6.06,0,0,1-.47,2.41,6,6,0,0,1-1.29,2,6.13,6.13,0,0,1-4.39,1.79Zm0-2.11a4,4,0,0,0,1.54-.3,3.74,3.74,0,0,0,2.09-2.09,4.72,4.72,0,0,0,0-3.31,3.91,3.91,0,0,0-.84-1.27,4.07,4.07,0,0,0-1.25-.83,4.23,4.23,0,0,0-3.08,0,4.07,4.07,0,0,0-1.25.83,3.91,3.91,0,0,0-.84,1.27,4.72,4.72,0,0,0,0,3.31,3.74,3.74,0,0,0,2.09,2.09A4,4,0,0,0,1283.41,157.19Z"/><path d="M1295.67,159.3a5.17,5.17,0,0,1-1.89-.34,4,4,0,0,1-1.44-1,4.64,4.64,0,0,1-.92-1.56,6.05,6.05,0,0,1-.33-2.08v-7.09h2.22v7.23a3.71,3.71,0,0,0,.15,1.08,2.59,2.59,0,0,0,.44.86,2,2,0,0,0,.75.56,2.32,2.32,0,0,0,1,.21,2.37,2.37,0,0,0,1-.21,2,2,0,0,0,.74-.56,2.43,2.43,0,0,0,.45-.86,3.71,3.71,0,0,0,.14-1.08v-7.23h2.22v7.09a5.91,5.91,0,0,1-.32,2,4.33,4.33,0,0,1-.92,1.56,4,4,0,0,1-1.45,1A4.75,4.75,0,0,1,1295.67,159.3Z"/><path d="M1304.86,159v-9.67h-3.29v-2.11h8.8v2.11h-3.29V159Z"/><path d="M1315.39,159.3a4.94,4.94,0,0,1-1.45-.22,4.11,4.11,0,0,1-1.27-.64,4.51,4.51,0,0,1-1-1A5.16,5.16,0,0,1,1311,156l2.09-.83a3.18,3.18,0,0,0,.8,1.48,2,2,0,0,0,1.51.58,2.46,2.46,0,0,0,.67-.09,2.18,2.18,0,0,0,.58-.26,1.3,1.3,0,0,0,.4-.44,1.2,1.2,0,0,0,.15-.61,1.41,1.41,0,0,0-.12-.59,1.33,1.33,0,0,0-.38-.49,3.34,3.34,0,0,0-.71-.45,10.34,10.34,0,0,0-1.08-.44l-.72-.27a5.51,5.51,0,0,1-1-.44,4.76,4.76,0,0,1-.88-.67,3.61,3.61,0,0,1-.65-.93,2.79,2.79,0,0,1-.25-1.21,3.11,3.11,0,0,1,.27-1.29,3.21,3.21,0,0,1,.77-1.06,3.75,3.75,0,0,1,1.2-.7,4.56,4.56,0,0,1,1.56-.26,4.49,4.49,0,0,1,1.54.24,3.74,3.74,0,0,1,1.1.61,3.25,3.25,0,0,1,.73.81,3.58,3.58,0,0,1,.41.84l-2,.82a2.1,2.1,0,0,0-.6-.88,1.71,1.71,0,0,0-1.2-.4,2,2,0,0,0-1.2.34,1,1,0,0,0-.47.88,1.12,1.12,0,0,0,.46.9,5.06,5.06,0,0,0,1.46.71l.74.25a7.61,7.61,0,0,1,1.29.57,3.67,3.67,0,0,1,1,.76,3.18,3.18,0,0,1,.65,1,3.78,3.78,0,0,1,.22,1.31,3.18,3.18,0,0,1-1.32,2.68,4,4,0,0,1-1.3.64A5,5,0,0,1,1315.39,159.3Z"/><path d="M1321.24,147.25h2.22V159h-2.22Z"/><path d="M1325.83,147.25h4a7.16,7.16,0,0,1,2.52.43,5.52,5.52,0,0,1,1.91,1.21,5.3,5.3,0,0,1,1.21,1.87,6.54,6.54,0,0,1,.42,2.38,6.66,6.66,0,0,1-.42,2.41,5.22,5.22,0,0,1-1.21,1.85,5.52,5.52,0,0,1-1.91,1.21,7.16,7.16,0,0,1-2.52.42h-4Zm3.88,9.68a5,5,0,0,0,1.71-.27,3.44,3.44,0,0,0,1.24-.77,3.24,3.24,0,0,0,.74-1.19,4.81,4.81,0,0,0,.25-1.56,4.75,4.75,0,0,0-.25-1.55,3.16,3.16,0,0,0-.74-1.19,3.31,3.31,0,0,0-1.24-.77,5,5,0,0,0-1.71-.27h-1.66v7.57Z"/><path d="M1339.88,149.36v2.73h4.72v2.11h-4.72v2.73h5.25V159h-7.47V147.25h7.47v2.11Z"/><path d="M1347.17,147.25h4.29a4.57,4.57,0,0,1,1.61.28,3.64,3.64,0,0,1,1.24.78,3.26,3.26,0,0,1,.8,1.17,3.87,3.87,0,0,1,.28,1.49,3.08,3.08,0,0,1-.19,1.11,3.52,3.52,0,0,1-.55.94,4,4,0,0,1-.8.74,4.25,4.25,0,0,1-1,.5l0,.12,3.16,4.52V159h-2.55l-3-4.42h-1V159h-2.22Zm4.27,5.32a1.78,1.78,0,0,0,1.25-.46,1.56,1.56,0,0,0,.48-1.17,1.61,1.61,0,0,0-.11-.61,1.45,1.45,0,0,0-.32-.53,1.73,1.73,0,0,0-.53-.37,1.86,1.86,0,0,0-.73-.13h-2.09v3.27Z"/><path d="M1361,159.3a4.94,4.94,0,0,1-1.45-.22,4.11,4.11,0,0,1-1.27-.64,4.51,4.51,0,0,1-1-1,5.16,5.16,0,0,1-.67-1.44l2.09-.83a3.18,3.18,0,0,0,.8,1.48,2,2,0,0,0,1.52.58,2.39,2.39,0,0,0,.66-.09,2.18,2.18,0,0,0,.58-.26,1.3,1.3,0,0,0,.4-.44,1.2,1.2,0,0,0,.15-.61,1.41,1.41,0,0,0-.12-.59,1.23,1.23,0,0,0-.38-.49,3.34,3.34,0,0,0-.71-.45,10.34,10.34,0,0,0-1.08-.44l-.72-.27a5.12,5.12,0,0,1-1-.44,4.51,4.51,0,0,1-.89-.67,3.58,3.58,0,0,1-.64-.93,2.79,2.79,0,0,1-.26-1.21,3.1,3.1,0,0,1,1-2.35,3.55,3.55,0,0,1,1.2-.7,4.9,4.9,0,0,1,3.09,0,3.74,3.74,0,0,1,1.1.61,3.25,3.25,0,0,1,.73.81,3.58,3.58,0,0,1,.41.84l-1.95.82a2.1,2.1,0,0,0-.6-.88,1.71,1.71,0,0,0-1.2-.4,2,2,0,0,0-1.2.34,1,1,0,0,0-.47.88,1.12,1.12,0,0,0,.46.9,5.06,5.06,0,0,0,1.46.71l.74.25a7.61,7.61,0,0,1,1.29.57,3.88,3.88,0,0,1,1,.76,3.33,3.33,0,0,1,.64,1,3.78,3.78,0,0,1,.22,1.31,3.22,3.22,0,0,1-.37,1.59,3.35,3.35,0,0,1-1,1.09,3.85,3.85,0,0,1-1.3.64A5,5,0,0,1,1361,159.3Z"/><path d="M1250.13,297v2.73h4.72v2.11h-4.72v2.73h5.25v2.11h-7.47V294.92h7.47V297Z"/><path d="M1262.68,300.23h5.78a4,4,0,0,1,.08.48,5.25,5.25,0,0,1,0,.56,6.57,6.57,0,0,1-.34,2.14,5,5,0,0,1-1.09,1.79,5.55,5.55,0,0,1-1.89,1.3,6.44,6.44,0,0,1-2.52.46,6.27,6.27,0,0,1-2.41-.46,6,6,0,0,1-3.31-3.23,6.3,6.3,0,0,1,0-4.92,6.19,6.19,0,0,1,1.33-2,5.88,5.88,0,0,1,2-1.28,6.61,6.61,0,0,1,5,0,5.67,5.67,0,0,1,1.93,1.36l-1.53,1.5a3.77,3.77,0,0,0-3-1.25,4.12,4.12,0,0,0-1.53.29,3.73,3.73,0,0,0-1.27.81,3.85,3.85,0,0,0-.86,1.28,4.52,4.52,0,0,0,0,3.34,3.68,3.68,0,0,0,.87,1.27,4.14,4.14,0,0,0,1.27.82,4.22,4.22,0,0,0,1.55.28,4.16,4.16,0,0,0,1.59-.27,3.68,3.68,0,0,0,1.11-.7,2.55,2.55,0,0,0,.57-.74,4.38,4.38,0,0,0,.36-1h-3.7Z"/><path d="M1270.15,300.64h5.58v1.91h-5.58Z"/><path d="M1283.41,307a6.14,6.14,0,0,1-2.44-.48,6,6,0,0,1-3.24-3.26,6.41,6.41,0,0,1,0-4.82,6,6,0,0,1,1.29-2,6.24,6.24,0,0,1,8.78,0,6,6,0,0,1,1.29,2,6.41,6.41,0,0,1,0,4.82,6,6,0,0,1-3.24,3.26A6.14,6.14,0,0,1,1283.41,307Zm0-2.11a4,4,0,0,0,1.54-.29,3.72,3.72,0,0,0,2.09-2.1,4.72,4.72,0,0,0,0-3.31,3.74,3.74,0,0,0-2.09-2.09,4.1,4.1,0,0,0-3.08,0,3.74,3.74,0,0,0-2.09,2.09,4.72,4.72,0,0,0,0,3.31,3.72,3.72,0,0,0,2.09,2.1A4,4,0,0,0,1283.41,304.85Z"/><path d="M1295.67,307a5,5,0,0,1-1.89-.34,3.89,3.89,0,0,1-1.44-1,4.49,4.49,0,0,1-.92-1.55,6.09,6.09,0,0,1-.33-2.08v-7.09h2.22v7.22a3.78,3.78,0,0,0,.15,1.09,2.64,2.64,0,0,0,.44.85,2.14,2.14,0,0,0,.75.57,2.32,2.32,0,0,0,1,.2,2.37,2.37,0,0,0,1-.2,2.1,2.1,0,0,0,.74-.57,2.47,2.47,0,0,0,.45-.85,3.78,3.78,0,0,0,.14-1.09v-7.22h2.22V302a5.85,5.85,0,0,1-.32,2,4.46,4.46,0,0,1-.92,1.57,4.16,4.16,0,0,1-1.45,1A4.75,4.75,0,0,1,1295.67,307Z"/><path d="M1304.86,306.7V297h-3.29v-2.1h8.8V297h-3.29v9.68Z"/><path d="M1315.39,307a4.94,4.94,0,0,1-1.45-.21,4.36,4.36,0,0,1-1.27-.65,4.51,4.51,0,0,1-1-1,5,5,0,0,1-.67-1.44l2.09-.82a3.19,3.19,0,0,0,.8,1.47,2,2,0,0,0,1.51.58,2.46,2.46,0,0,0,.67-.09,1.91,1.91,0,0,0,.58-.26,1.21,1.21,0,0,0,.4-.44,1.16,1.16,0,0,0,.15-.6,1.46,1.46,0,0,0-.12-.6,1.42,1.42,0,0,0-.38-.49,3.79,3.79,0,0,0-.71-.44,10.16,10.16,0,0,0-1.08-.45l-.72-.26a5.58,5.58,0,0,1-1-.45,4.36,4.36,0,0,1-.88-.67,3.3,3.3,0,0,1-.65-.93,2.79,2.79,0,0,1-.25-1.21,3.11,3.11,0,0,1,.27-1.29,3.17,3.17,0,0,1,.77-1.05,3.78,3.78,0,0,1,1.2-.71,4.56,4.56,0,0,1,1.56-.26,4.74,4.74,0,0,1,1.54.24,4,4,0,0,1,1.1.61,3.29,3.29,0,0,1,.73.82,3.24,3.24,0,0,1,.41.84l-2,.82a2.07,2.07,0,0,0-.6-.89,1.75,1.75,0,0,0-1.2-.39,2.07,2.07,0,0,0-1.2.33,1,1,0,0,0-.47.88,1.12,1.12,0,0,0,.46.9,4.81,4.81,0,0,0,1.46.71l.74.25a8.5,8.5,0,0,1,1.29.57,3.88,3.88,0,0,1,1,.76,3.22,3.22,0,0,1,.65,1,3.69,3.69,0,0,1,.22,1.3,3.28,3.28,0,0,1-.37,1.59,3.35,3.35,0,0,1-1,1.09,4.17,4.17,0,0,1-1.3.65A5,5,0,0,1,1315.39,307Z"/><path d="M1321.24,294.92h2.22V306.7h-2.22Z"/><path d="M1325.83,294.92h4a6.94,6.94,0,0,1,2.52.43,5.35,5.35,0,0,1,1.91,1.2,5.48,5.48,0,0,1,1.21,1.87,7,7,0,0,1,0,4.79,5.35,5.35,0,0,1-1.21,1.86,5.65,5.65,0,0,1-1.91,1.2,7.16,7.16,0,0,1-2.52.43h-4Zm3.88,9.67a5,5,0,0,0,1.71-.27,3.31,3.31,0,0,0,1.24-.77,3.08,3.08,0,0,0,.74-1.19,4.71,4.71,0,0,0,.25-1.55,4.81,4.81,0,0,0-.25-1.56,3.24,3.24,0,0,0-.74-1.19,3.44,3.44,0,0,0-1.24-.77,5,5,0,0,0-1.71-.27h-1.66v7.57Z"/><path d="M1339.88,297v2.73h4.72v2.11h-4.72v2.73h5.25v2.11h-7.47V294.92h7.47V297Z"/><path d="M1347.17,294.92h4.29a4.35,4.35,0,0,1,1.61.28,3.47,3.47,0,0,1,1.24.77,3.21,3.21,0,0,1,.8,1.18,3.8,3.8,0,0,1,.28,1.49,3.16,3.16,0,0,1-.19,1.11,3.62,3.62,0,0,1-.55.93,4,4,0,0,1-.8.74,4.29,4.29,0,0,1-1,.51l0,.11,3.16,4.53v.13h-2.55l-3-4.43h-1v4.43h-2.22Zm4.27,5.31a1.74,1.74,0,0,0,1.25-.46,1.55,1.55,0,0,0,.48-1.17,1.64,1.64,0,0,0-.11-.61,1.41,1.41,0,0,0-.32-.52,1.45,1.45,0,0,0-.53-.37,1.7,1.7,0,0,0-.73-.14h-2.09v3.27Z"/><path d="M1361,307a4.94,4.94,0,0,1-1.45-.21,4.36,4.36,0,0,1-1.27-.65,4.51,4.51,0,0,1-1-1,5,5,0,0,1-.67-1.44l2.09-.82a3.19,3.19,0,0,0,.8,1.47,2,2,0,0,0,1.52.58,2.39,2.39,0,0,0,.66-.09,1.91,1.91,0,0,0,.58-.26,1.21,1.21,0,0,0,.4-.44,1.16,1.16,0,0,0,.15-.6,1.46,1.46,0,0,0-.12-.6,1.31,1.31,0,0,0-.38-.49,3.79,3.79,0,0,0-.71-.44,10.16,10.16,0,0,0-1.08-.45l-.72-.26a5.18,5.18,0,0,1-1-.45,4.16,4.16,0,0,1-.89-.67,3.27,3.27,0,0,1-.64-.93A2.79,2.79,0,0,1,1357,298a3.11,3.11,0,0,1,.27-1.29,3.07,3.07,0,0,1,.78-1.05,3.57,3.57,0,0,1,1.2-.71,4.46,4.46,0,0,1,1.55-.26,4.74,4.74,0,0,1,1.54.24,4,4,0,0,1,1.1.61,3.29,3.29,0,0,1,.73.82,3.24,3.24,0,0,1,.41.84l-1.95.82a2.07,2.07,0,0,0-.6-.89,1.75,1.75,0,0,0-1.2-.39,2.07,2.07,0,0,0-1.2.33,1,1,0,0,0-.47.88,1.12,1.12,0,0,0,.46.9,4.81,4.81,0,0,0,1.46.71l.74.25a8.5,8.5,0,0,1,1.29.57,4.12,4.12,0,0,1,1,.76,3.38,3.38,0,0,1,.64,1,3.69,3.69,0,0,1,.22,1.3,3.17,3.17,0,0,1-.37,1.59,3.35,3.35,0,0,1-1,1.09,4.07,4.07,0,0,1-1.3.65A5,5,0,0,1,1361,307Z"/><path d="M1250.13,444.69v2.73h4.72v2.1h-4.72v2.73h5.25v2.11h-7.47V442.58h7.47v2.11Z"/><path d="M1262.68,447.9h5.78a4.13,4.13,0,0,1,.08.47,5.4,5.4,0,0,1,0,.56,6.53,6.53,0,0,1-.34,2.14,4.94,4.94,0,0,1-1.09,1.79,5.42,5.42,0,0,1-1.89,1.3,6.44,6.44,0,0,1-2.52.46,6.27,6.27,0,0,1-2.41-.46,5.88,5.88,0,0,1-2-1.28,6.19,6.19,0,0,1-1.33-1.95,6.3,6.3,0,0,1,0-4.92,6.19,6.19,0,0,1,1.33-1.95,6,6,0,0,1,2-1.28,6.74,6.74,0,0,1,5,0,5.7,5.7,0,0,1,1.93,1.37l-1.53,1.49a4,4,0,0,0-1.28-.92,4,4,0,0,0-1.69-.33,4.12,4.12,0,0,0-1.53.29,3.91,3.91,0,0,0-1.27.82,3.8,3.8,0,0,0-.86,1.27,4.52,4.52,0,0,0,0,3.34,3.68,3.68,0,0,0,.87,1.27,3.8,3.8,0,0,0,1.27.82,4.23,4.23,0,0,0,1.55.29,4.16,4.16,0,0,0,1.59-.27,3.89,3.89,0,0,0,1.11-.7,2.75,2.75,0,0,0,.57-.75,4.3,4.3,0,0,0,.36-1h-3.7Z"/><path d="M1270.15,448.31h5.58v1.9h-5.58Z"/><path d="M1283.41,454.62a6.31,6.31,0,0,1-2.44-.47,6.14,6.14,0,0,1-2-1.31,6,6,0,0,1-1.29-2,6.28,6.28,0,0,1,1.29-6.78,6,6,0,0,1,2-1.3,6.44,6.44,0,0,1,4.88,0,6,6,0,0,1,2,1.3,6.34,6.34,0,0,1,1.29,6.78,6,6,0,0,1-1.29,2,6.14,6.14,0,0,1-2,1.31A6.31,6.31,0,0,1,1283.41,454.62Zm0-2.1a4,4,0,0,0,1.54-.3,4,4,0,0,0,1.25-.82,4,4,0,0,0,.84-1.28,4.69,4.69,0,0,0,0-3.3,4,4,0,0,0-.84-1.28,4,4,0,0,0-1.25-.82,4.1,4.1,0,0,0-3.08,0,4,4,0,0,0-1.25.82,4,4,0,0,0-.84,1.28,4.69,4.69,0,0,0,0,3.3,4,4,0,0,0,.84,1.28,4,4,0,0,0,1.25.82A4,4,0,0,0,1283.41,452.52Z"/><path d="M1295.67,454.62a5.17,5.17,0,0,1-1.89-.33,4.14,4.14,0,0,1-1.44-1,4.64,4.64,0,0,1-.92-1.56,6.09,6.09,0,0,1-.33-2.08v-7.09h2.22v7.22a3.73,3.73,0,0,0,.15,1.09,2.54,2.54,0,0,0,.44.85,1.92,1.92,0,0,0,.75.57,2.32,2.32,0,0,0,1,.21,2.37,2.37,0,0,0,1-.21,1.89,1.89,0,0,0,.74-.57,2.39,2.39,0,0,0,.45-.85,3.74,3.74,0,0,0,.14-1.09v-7.22h2.22v7.09a5.91,5.91,0,0,1-.32,2,4.33,4.33,0,0,1-.92,1.56,4.16,4.16,0,0,1-1.45,1A4.75,4.75,0,0,1,1295.67,454.62Z"/><path d="M1304.86,454.36v-9.67h-3.29v-2.11h8.8v2.11h-3.29v9.67Z"/><path d="M1315.39,454.62a4.94,4.94,0,0,1-1.45-.21,4.34,4.34,0,0,1-1.27-.64,4.55,4.55,0,0,1-1-1,5,5,0,0,1-.67-1.44l2.09-.82a3.19,3.19,0,0,0,.8,1.47,2,2,0,0,0,1.51.59,2.46,2.46,0,0,0,.67-.09,1.93,1.93,0,0,0,.58-.27,1.27,1.27,0,0,0,.4-.43,1.23,1.23,0,0,0,.15-.61,1.38,1.38,0,0,0-.12-.59,1.45,1.45,0,0,0-.38-.5,3.79,3.79,0,0,0-.71-.44,10.34,10.34,0,0,0-1.08-.44l-.72-.27a5.51,5.51,0,0,1-1-.44,4.41,4.41,0,0,1-.88-.68,3.3,3.3,0,0,1-.65-.93,2.71,2.71,0,0,1-.25-1.2,3.1,3.1,0,0,1,1-2.35,3.78,3.78,0,0,1,1.2-.71,4.56,4.56,0,0,1,1.56-.25,4.49,4.49,0,0,1,1.54.24,3.74,3.74,0,0,1,1.1.61,3.09,3.09,0,0,1,.73.81,3.58,3.58,0,0,1,.41.84l-2,.82a2.13,2.13,0,0,0-.6-.89,1.75,1.75,0,0,0-1.2-.39,2,2,0,0,0-1.2.34,1,1,0,0,0-.47.88,1.09,1.09,0,0,0,.46.89,4.79,4.79,0,0,0,1.46.72l.74.25a8.49,8.49,0,0,1,1.29.56,3.91,3.91,0,0,1,1,.77,3.07,3.07,0,0,1,.65,1,3.74,3.74,0,0,1,.22,1.31,3.26,3.26,0,0,1-.37,1.58,3.38,3.38,0,0,1-1,1.1,4.15,4.15,0,0,1-1.3.64A5,5,0,0,1,1315.39,454.62Z"/><path d="M1321.24,442.58h2.22v11.78h-2.22Z"/><path d="M1325.83,442.58h4a6.94,6.94,0,0,1,2.52.43,5.38,5.38,0,0,1,1.91,1.21,5.3,5.3,0,0,1,1.21,1.87,7,7,0,0,1,0,4.78,5.17,5.17,0,0,1-1.21,1.86,5.35,5.35,0,0,1-1.91,1.2,6.94,6.94,0,0,1-2.52.43h-4Zm3.88,9.67a5,5,0,0,0,1.71-.27,3.29,3.29,0,0,0,1.24-.76,3.24,3.24,0,0,0,.74-1.19,4.81,4.81,0,0,0,.25-1.56,4.71,4.71,0,0,0-.25-1.55,3.2,3.2,0,0,0-.74-1.2,3.29,3.29,0,0,0-1.24-.76,5,5,0,0,0-1.71-.27h-1.66v7.56Z"/><path d="M1339.88,444.69v2.73h4.72v2.1h-4.72v2.73h5.25v2.11h-7.47V442.58h7.47v2.11Z"/><path d="M1347.17,442.58h4.29a4.35,4.35,0,0,1,1.61.28,3.78,3.78,0,0,1,1.24.77,3.3,3.3,0,0,1,.8,1.18,3.84,3.84,0,0,1,.28,1.49,3.16,3.16,0,0,1-.19,1.11,3.52,3.52,0,0,1-.55.94,4.34,4.34,0,0,1-.8.74,4.25,4.25,0,0,1-1,.5l0,.11,3.16,4.53v.13h-2.55l-3-4.42h-1v4.42h-2.22Zm4.27,5.32a1.78,1.78,0,0,0,1.25-.46,1.56,1.56,0,0,0,.48-1.17,1.61,1.61,0,0,0-.11-.61,1.45,1.45,0,0,0-.32-.53,1.73,1.73,0,0,0-.53-.37,1.86,1.86,0,0,0-.73-.14h-2.09v3.28Z"/><path d="M1361,454.62a4.94,4.94,0,0,1-1.45-.21,4.34,4.34,0,0,1-1.27-.64,4.55,4.55,0,0,1-1-1,5,5,0,0,1-.67-1.44l2.09-.82a3.19,3.19,0,0,0,.8,1.47,2,2,0,0,0,1.52.59,2.39,2.39,0,0,0,.66-.09,1.93,1.93,0,0,0,.58-.27,1.27,1.27,0,0,0,.4-.43,1.23,1.23,0,0,0,.15-.61,1.38,1.38,0,0,0-.12-.59,1.33,1.33,0,0,0-.38-.5,3.79,3.79,0,0,0-.71-.44,10.34,10.34,0,0,0-1.08-.44l-.72-.27a5.12,5.12,0,0,1-1-.44,4.2,4.2,0,0,1-.89-.68,3.27,3.27,0,0,1-.64-.93,2.71,2.71,0,0,1-.26-1.2,3.15,3.15,0,0,1,.27-1.3,3.07,3.07,0,0,1,.78-1.05,3.57,3.57,0,0,1,1.2-.71,5,5,0,0,1,3.09,0,3.74,3.74,0,0,1,1.1.61,3.09,3.09,0,0,1,.73.81,3.58,3.58,0,0,1,.41.84l-1.95.82a2.13,2.13,0,0,0-.6-.89,1.75,1.75,0,0,0-1.2-.39,2,2,0,0,0-1.2.34,1,1,0,0,0-.47.88,1.09,1.09,0,0,0,.46.89,4.79,4.79,0,0,0,1.46.72l.74.25a8.49,8.49,0,0,1,1.29.56,4.15,4.15,0,0,1,1,.77,3.21,3.21,0,0,1,.64,1,3.74,3.74,0,0,1,.22,1.31,3.16,3.16,0,0,1-.37,1.58,3.38,3.38,0,0,1-1,1.1,4,4,0,0,1-1.3.64A5,5,0,0,1,1361,454.62Z"/><path d="M1250.13,592.35v2.73h4.72v2.11h-4.72v2.73h5.25V602h-7.47V590.25h7.47v2.1Z"/><path d="M1262.68,595.56h5.78a4,4,0,0,1,.08.48,5.12,5.12,0,0,1,0,.56,6.47,6.47,0,0,1-.34,2.13,5.06,5.06,0,0,1-1.09,1.8,5.55,5.55,0,0,1-1.89,1.3,6.62,6.62,0,0,1-2.52.46,6.46,6.46,0,0,1-2.41-.46,6.19,6.19,0,0,1-3.31-8.15,6.19,6.19,0,0,1,1.33-1.95,6.06,6.06,0,0,1,2-1.29,6.46,6.46,0,0,1,2.41-.46,6.29,6.29,0,0,1,2.56.5,5.67,5.67,0,0,1,1.93,1.36l-1.53,1.5a3.92,3.92,0,0,0-1.28-.93,4.4,4.4,0,0,0-3.22,0,3.73,3.73,0,0,0-1.27.81,3.85,3.85,0,0,0-.86,1.28,4.52,4.52,0,0,0,0,3.34,3.78,3.78,0,0,0,.87,1.27,4.14,4.14,0,0,0,1.27.82,4.22,4.22,0,0,0,1.55.28,4.16,4.16,0,0,0,1.59-.27,3.68,3.68,0,0,0,1.11-.7,2.6,2.6,0,0,0,.57-.75,4.14,4.14,0,0,0,.36-1h-3.7Z"/><path d="M1270.15,596h5.58v1.91h-5.58Z"/><path d="M1283.41,602.29a6.14,6.14,0,0,1-2.44-.48,6,6,0,0,1-3.24-3.26,6.13,6.13,0,0,1-.47-2.41,6.06,6.06,0,0,1,.47-2.41,6,6,0,0,1,1.29-2,6.24,6.24,0,0,1,8.78,0,6,6,0,0,1,1.29,2,6.06,6.06,0,0,1,.47,2.41,6.13,6.13,0,0,1-.47,2.41,6,6,0,0,1-3.24,3.26A6.14,6.14,0,0,1,1283.41,602.29Zm0-2.11a4.14,4.14,0,0,0,1.54-.29,4.07,4.07,0,0,0,1.25-.83,3.91,3.91,0,0,0,.84-1.27,4.72,4.72,0,0,0,0-3.31,3.74,3.74,0,0,0-2.09-2.09,4.1,4.1,0,0,0-3.08,0,3.74,3.74,0,0,0-2.09,2.09,4.72,4.72,0,0,0,0,3.31,3.91,3.91,0,0,0,.84,1.27,4.07,4.07,0,0,0,1.25.83A4.14,4.14,0,0,0,1283.41,600.18Z"/><path d="M1295.67,602.29a5,5,0,0,1-1.89-.34,3.89,3.89,0,0,1-1.44-1,4.59,4.59,0,0,1-.92-1.55,6.09,6.09,0,0,1-.33-2.08v-7.09h2.22v7.22a3.71,3.71,0,0,0,.15,1.08,2.59,2.59,0,0,0,.44.86,2.14,2.14,0,0,0,.75.57,2.47,2.47,0,0,0,1,.2,2.52,2.52,0,0,0,1-.2,2.1,2.1,0,0,0,.74-.57,2.43,2.43,0,0,0,.45-.86,3.71,3.71,0,0,0,.14-1.08v-7.22h2.22v7.09a5.89,5.89,0,0,1-.32,2,4.46,4.46,0,0,1-.92,1.57,4.16,4.16,0,0,1-1.45,1A4.75,4.75,0,0,1,1295.67,602.29Z"/><path d="M1304.86,602v-9.68h-3.29v-2.1h8.8v2.1h-3.29V602Z"/><path d="M1315.39,602.29a4.63,4.63,0,0,1-1.45-.22,4.11,4.11,0,0,1-1.27-.64,4.51,4.51,0,0,1-1-1A5,5,0,0,1,1311,599l2.09-.82a3.19,3.19,0,0,0,.8,1.47,2,2,0,0,0,1.51.58,2.46,2.46,0,0,0,.67-.09,2.18,2.18,0,0,0,.58-.26,1.3,1.3,0,0,0,.4-.44,1.2,1.2,0,0,0,.15-.61,1.34,1.34,0,0,0-.5-1.08,4.38,4.38,0,0,0-.71-.45,10.34,10.34,0,0,0-1.08-.44l-.72-.26a5.58,5.58,0,0,1-1-.45,4.36,4.36,0,0,1-.88-.67,3.3,3.3,0,0,1-.65-.93,2.79,2.79,0,0,1-.25-1.21,3.11,3.11,0,0,1,.27-1.29,3.17,3.17,0,0,1,.77-1,3.78,3.78,0,0,1,1.2-.71,4.56,4.56,0,0,1,1.56-.26,4.49,4.49,0,0,1,1.54.24,3.74,3.74,0,0,1,1.1.61,3.29,3.29,0,0,1,.73.82,3.35,3.35,0,0,1,.41.83l-2,.83a2.07,2.07,0,0,0-.6-.89,1.75,1.75,0,0,0-1.2-.4,2.07,2.07,0,0,0-1.2.34,1,1,0,0,0-.47.88,1.12,1.12,0,0,0,.46.9,5.06,5.06,0,0,0,1.46.71l.74.25a7.61,7.61,0,0,1,1.29.57,3.88,3.88,0,0,1,1,.76,3.29,3.29,0,0,1,.65,1,3.78,3.78,0,0,1,.22,1.31,3.28,3.28,0,0,1-.37,1.59,3.35,3.35,0,0,1-1,1.09,4,4,0,0,1-1.3.64A4.7,4.7,0,0,1,1315.39,602.29Z"/><path d="M1321.24,590.25h2.22V602h-2.22Z"/><path d="M1325.83,590.25h4a7.16,7.16,0,0,1,2.52.42,5.24,5.24,0,0,1,3.12,3.08,7,7,0,0,1,0,4.79,5.35,5.35,0,0,1-1.21,1.86,5.65,5.65,0,0,1-1.91,1.2,7.16,7.16,0,0,1-2.52.43h-4Zm3.88,9.67a5,5,0,0,0,1.71-.27,3.31,3.31,0,0,0,1.24-.77,3.16,3.16,0,0,0,.74-1.19,4.75,4.75,0,0,0,.25-1.55,4.81,4.81,0,0,0-.25-1.56,3.24,3.24,0,0,0-.74-1.19,3.44,3.44,0,0,0-1.24-.77,5,5,0,0,0-1.71-.27h-1.66v7.57Z"/><path d="M1339.88,592.35v2.73h4.72v2.11h-4.72v2.73h5.25V602h-7.47V590.25h7.47v2.1Z"/><path d="M1347.17,590.25h4.29a4.35,4.35,0,0,1,1.61.28,3.47,3.47,0,0,1,1.24.77,3.21,3.21,0,0,1,.8,1.18,3.79,3.79,0,0,1,.28,1.48,3.08,3.08,0,0,1-.19,1.11,3.52,3.52,0,0,1-.55.94,4,4,0,0,1-.8.74,3.89,3.89,0,0,1-1,.5l0,.12,3.16,4.52V602h-2.55l-3-4.43h-1V602h-2.22Zm4.27,5.31a1.74,1.74,0,0,0,1.25-.46,1.56,1.56,0,0,0,.48-1.17,1.61,1.61,0,0,0-.11-.61,1.41,1.41,0,0,0-.32-.52,1.45,1.45,0,0,0-.53-.37,1.7,1.7,0,0,0-.73-.14h-2.09v3.27Z"/><path d="M1361,602.29a4.63,4.63,0,0,1-1.45-.22,4.11,4.11,0,0,1-1.27-.64,4.51,4.51,0,0,1-1-1,5,5,0,0,1-.67-1.44l2.09-.82a3.19,3.19,0,0,0,.8,1.47,2,2,0,0,0,1.52.58,2.39,2.39,0,0,0,.66-.09,2.18,2.18,0,0,0,.58-.26,1.3,1.3,0,0,0,.4-.44,1.2,1.2,0,0,0,.15-.61,1.41,1.41,0,0,0-.12-.59,1.31,1.31,0,0,0-.38-.49,4.38,4.38,0,0,0-.71-.45,10.34,10.34,0,0,0-1.08-.44l-.72-.26a5.18,5.18,0,0,1-1-.45,4.16,4.16,0,0,1-.89-.67,3.27,3.27,0,0,1-.64-.93,2.79,2.79,0,0,1-.26-1.21,3.11,3.11,0,0,1,.27-1.29,3.07,3.07,0,0,1,.78-1,3.57,3.57,0,0,1,1.2-.71,4.9,4.9,0,0,1,3.09,0,3.74,3.74,0,0,1,1.1.61,3.29,3.29,0,0,1,.73.82,3.35,3.35,0,0,1,.41.83l-1.95.83a2.07,2.07,0,0,0-.6-.89,1.75,1.75,0,0,0-1.2-.4,2.07,2.07,0,0,0-1.2.34,1,1,0,0,0-.47.88,1.12,1.12,0,0,0,.46.9,5.06,5.06,0,0,0,1.46.71l.74.25a7.61,7.61,0,0,1,1.29.57,4.12,4.12,0,0,1,1,.76,3.46,3.46,0,0,1,.64,1,3.78,3.78,0,0,1,.22,1.31,3.17,3.17,0,0,1-.37,1.59,3.35,3.35,0,0,1-1,1.09,3.85,3.85,0,0,1-1.3.64A4.7,4.7,0,0,1,1361,602.29Z"/></g></svg>