<svg id="Layer_1" data-name="Layer 1" xmlns="http://www.w3.org/2000/svg" viewBox="0 0 234.97 89.33"><defs><style>.cls-1{fill:#5f4dee;}</style></defs><path class="cls-1" d="M23.43,2V6.55l-4-3V2a2,2,0,1,1,4,0Z"/><path class="cls-1" d="M19.47,27l4,3V65.71a2,2,0,0,1-4,0Z"/><path class="cls-1" d="M29.69,34.78l4,3V65.71a2,2,0,0,1-4,0Z"/><path class="cls-1" d="M39.91,42.52l4,3V65.71a2,2,0,0,1-4,0Z"/><path class="cls-1" d="M50.14,50.2a11.47,11.47,0,0,0,4,1.5v14a2,2,0,0,1-4,0Z"/><path class="cls-1" d="M63.05,49.59l1.28-1V65.71a2,2,0,0,1-4,0V51.08A11.24,11.24,0,0,0,63.05,49.59Z"/><path class="cls-1" d="M70.58,43.92l4-3V65.71a2,2,0,0,1-4,0Z"/><path class="cls-1" d="M80.81,36.23l4-3V65.71a2,2,0,1,1-4,0Z"/><path class="cls-1" d="M91,28.55l4-3V65.71a2,2,0,0,1-4,0Z"/><path class="cls-1" d="M103.35,89.33h0L9.28,89A9.33,9.33,0,0,1,0,79.66V13.27A8.63,8.63,0,0,1,13.85,6.38L55.26,37.76a1.47,1.47,0,0,0,1.76,0L98.83,6.32a8.64,8.64,0,0,1,13.83,6.9V80a9.3,9.3,0,0,1-9.31,9.31ZM8.65,12.64a.68.68,0,0,0-.29.07.58.58,0,0,0-.34.56V79.66A1.29,1.29,0,0,0,9.31,81l94,.36h0A1.28,1.28,0,0,0,104.64,80V13.22a.62.62,0,0,0-1-.49L61.84,44.17a9.52,9.52,0,0,1-11.42,0L9,12.78A.58.58,0,0,0,8.65,12.64Z"/><path class="cls-1" d="M31.65,12.78l-3.57-2.71a11.56,11.56,0,0,1,2-3.72A6.38,6.38,0,0,0,31.69,2a2,2,0,0,1,4,0,10.3,10.3,0,0,1-2.38,6.7A6.37,6.37,0,0,0,31.65,12.78Z"/><path class="cls-1" d="M39.66,18.84a9.72,9.72,0,0,1-1.75-5.79,10.3,10.3,0,0,1,2.38-6.7A6.34,6.34,0,0,0,41.92,2a2,2,0,0,1,4,0,10.3,10.3,0,0,1-2.38,6.7,6.38,6.38,0,0,0-1.63,4.37,6.42,6.42,0,0,0,1.63,4.37,10.26,10.26,0,0,1,2.37,6.13Z"/><path class="cls-1" d="M53.72,17.42a10.19,10.19,0,0,1,2.39,6.69A9.67,9.67,0,0,1,54.32,30l-3.16-2.39a5.71,5.71,0,0,0,1-3.45,6.42,6.42,0,0,0-1.62-4.37,10.19,10.19,0,0,1-2.39-6.69,10.25,10.25,0,0,1,2.39-6.7A6.38,6.38,0,0,0,52.14,2a2,2,0,0,1,4,0,10.25,10.25,0,0,1-2.39,6.7,6.38,6.38,0,0,0-1.62,4.37A6.42,6.42,0,0,0,53.72,17.42Z"/><path class="cls-1" d="M60.74,19.74a10.25,10.25,0,0,1-2.38-6.69,10.3,10.3,0,0,1,2.38-6.7A6.38,6.38,0,0,0,62.37,2a2,2,0,0,1,4,0A10.3,10.3,0,0,1,64,8.68a6.34,6.34,0,0,0-1.63,4.37A6.37,6.37,0,0,0,64,17.42a10.28,10.28,0,0,1,2.37,6.26l-4.74,3.56a5.73,5.73,0,0,0,.79-3.13A6.42,6.42,0,0,0,60.74,19.74Z"/><path class="cls-1" d="M71,19.74a10.25,10.25,0,0,1-2.38-6.69A10.3,10.3,0,0,1,71,6.35,6.34,6.34,0,0,0,72.59,2a2,2,0,0,1,4,0,10.3,10.3,0,0,1-2.38,6.7,6.38,6.38,0,0,0-1.63,4.37,6.42,6.42,0,0,0,1.63,4.37c.06.07.11.15.17.23L71.17,20C71.1,19.94,71,19.84,71,19.74Z"/><path class="cls-1" d="M78.86,14.25a11.47,11.47,0,0,1-.06-1.2,10.25,10.25,0,0,1,2.39-6.7A6.38,6.38,0,0,0,82.81,2a2,2,0,0,1,4,0,10.25,10.25,0,0,1-2.39,6.7A8,8,0,0,0,83,11.12Z"/><path class="cls-1" d="M96.66.87,92.83,3.75A6.92,6.92,0,0,0,93,2,2,2,0,0,1,96.66.87Z"/><path class="cls-1" d="M127.63,17.21a1.83,1.83,0,0,1,2-2H143.5a1.83,1.83,0,0,1,2,2v.94a2,2,0,0,1-.52,1.49,2,2,0,0,1-1.49.52H133.45V27h9.07a1.82,1.82,0,0,1,2,2v.9a1.82,1.82,0,0,1-2,2h-9.07v7h10.42a1.82,1.82,0,0,1,2,2v.94a1.82,1.82,0,0,1-2,2H129.64a1.82,1.82,0,0,1-2-2Z"/><path class="cls-1" d="M154.36,22.66a1.81,1.81,0,0,1,2,2V25a7.6,7.6,0,0,1,2.53-2,6.92,6.92,0,0,1,3.2-.76,8.42,8.42,0,0,1,4,1A7.67,7.67,0,0,1,169,25.86a8.59,8.59,0,0,1,3-2.68,8.32,8.32,0,0,1,4-1,7.87,7.87,0,0,1,6,2.41,8.58,8.58,0,0,1,2.31,6.18V41.9a1.82,1.82,0,0,1-2,2h-1.62a2,2,0,0,1-1.49-.52,2.06,2.06,0,0,1-.52-1.49V31.34a4.34,4.34,0,0,0-1.06-3,3.52,3.52,0,0,0-2.79-1.2,4.28,4.28,0,0,0-2.49.85,7.72,7.72,0,0,0-2,2.21c0,.6,0,1.07,0,1.39V41.9a1.82,1.82,0,0,1-2,2H166.7a2,2,0,0,1-1.48-.52,2,2,0,0,1-.53-1.49V31.34a4.32,4.32,0,0,0-1.06-3,3.6,3.6,0,0,0-2.79-1.18,4.21,4.21,0,0,0-2.48.84,7.55,7.55,0,0,0-2,2.16V41.9a2,2,0,0,1-.52,1.49,2,2,0,0,1-1.48.52h-1.63a2,2,0,0,1-1.48-.52,2,2,0,0,1-.53-1.49V24.67a1.83,1.83,0,0,1,2-2Z"/><path class="cls-1" d="M216.87,19.32a3.28,3.28,0,0,1,0-4.64,3.48,3.48,0,0,1,4.76,0,3.26,3.26,0,0,1,0,4.64,3.48,3.48,0,0,1-4.76,0Zm-.45,5.35a1.82,1.82,0,0,1,2-2h1.62a2.06,2.06,0,0,1,1.49.52,2,2,0,0,1,.52,1.49V41.9a1.82,1.82,0,0,1-2,2h-1.62a2,2,0,0,1-1.49-.52,2.06,2.06,0,0,1-.52-1.49Z"/><path class="cls-1" d="M227.74,16a1.84,1.84,0,0,1,2-2h1.62a1.83,1.83,0,0,1,2,2V41.9a1.82,1.82,0,0,1-2,2h-1.62a2,2,0,0,1-1.48-.52,2,2,0,0,1-.53-1.49Z"/><path class="cls-1" d="M142.18,53.65a8.6,8.6,0,0,0-6.4,2.66,9.69,9.69,0,0,0,0,13.2,8.6,8.6,0,0,0,6.39,2.68,8,8,0,0,0,4.26-1.13V65.85h-4.05a1.71,1.71,0,0,1-1.9-1.9v-.64a1.71,1.71,0,0,1,1.9-1.89H150a1.88,1.88,0,0,1,1.4.49,1.9,1.9,0,0,1,.5,1.4V72a2.66,2.66,0,0,1-1.13,2.31,15.57,15.57,0,0,1-16,.78,13.89,13.89,0,0,1,0-24.35,15,15,0,0,1,7.39-1.85,14.84,14.84,0,0,1,7.72,2.08,1.7,1.7,0,0,1,.9,1.17,1.89,1.89,0,0,1-.39,1.46l-.66,1a1.67,1.67,0,0,1-2.52.58A9.87,9.87,0,0,0,142.18,53.65Z"/><path class="cls-1" d="M170.22,58.26a1.91,1.91,0,0,1,.5-1.41,1.87,1.87,0,0,1,1.4-.49h1.53a1.88,1.88,0,0,1,1.4.49,1.91,1.91,0,0,1,.5,1.41V74.53a1.74,1.74,0,0,1-1.9,1.9h-1.53a1.74,1.74,0,0,1-1.9-1.9v-.31a7.66,7.66,0,0,1-2.53,2,7.07,7.07,0,0,1-3.1.72,7.77,7.77,0,0,1-5.79-2.26,8,8,0,0,1-2.23-5.91V58.26a1.71,1.71,0,0,1,1.89-1.9H160a1.71,1.71,0,0,1,1.9,1.9V68.2A4,4,0,0,0,163,71a3.83,3.83,0,0,0,2.89,1.15,4.29,4.29,0,0,0,2.42-.82,6.51,6.51,0,0,0,1.92-2Z"/><path class="cls-1" d="M190.71,60.6a4.47,4.47,0,0,0-2.65.87,6.85,6.85,0,0,0-2,2.39V74.53a1.74,1.74,0,0,1-1.9,1.9H182.6a1.72,1.72,0,0,1-1.9-1.9V58.26a2,2,0,0,1,.49-1.41,1.91,1.91,0,0,1,1.41-.49h1.53a1.88,1.88,0,0,1,1.4.49,1.91,1.91,0,0,1,.5,1.41v.56a6.49,6.49,0,0,1,5.36-2.92h.2a1.37,1.37,0,0,1,1.19.63,2.39,2.39,0,0,1,.3,1.5L193,59a1.62,1.62,0,0,1-.6,1.28,2.42,2.42,0,0,1-1.53.33Z"/><path class="cls-1" d="M210,58.26a1.71,1.71,0,0,1,1.9-1.9h1.53a1.71,1.71,0,0,1,1.89,1.9V74.53a1.88,1.88,0,0,1-.49,1.4,1.9,1.9,0,0,1-1.4.5h-1.53a1.91,1.91,0,0,1-1.41-.5,1.88,1.88,0,0,1-.49-1.4v-.31a7.76,7.76,0,0,1-2.53,2,7.12,7.12,0,0,1-3.11.72,7.77,7.77,0,0,1-5.78-2.26,8.06,8.06,0,0,1-2.24-5.91V58.26a1.91,1.91,0,0,1,.5-1.41,1.88,1.88,0,0,1,1.4-.49h1.53a1.91,1.91,0,0,1,1.41.49,2,2,0,0,1,.49,1.41V68.2A3.94,3.94,0,0,0,202.71,71a3.85,3.85,0,0,0,2.9,1.15,4.32,4.32,0,0,0,2.42-.82,6.51,6.51,0,0,0,1.92-2Z"/><path class="cls-1" d="M220.52,71.74a1.73,1.73,0,0,1,2.64-.23,6.58,6.58,0,0,0,3.66,1.12,3.75,3.75,0,0,0,2.16-.54,1.69,1.69,0,0,0,.78-1.45,1.82,1.82,0,0,0-.77-1.51,7.08,7.08,0,0,0-2.67-.95q-6.54-1.35-6.53-6.43a5.22,5.22,0,0,1,2-4.21A8,8,0,0,1,227,55.9a10.38,10.38,0,0,1,5.6,1.6,1.6,1.6,0,0,1,.86,1.19,1.93,1.93,0,0,1-.49,1.45l-.27.35a1.82,1.82,0,0,1-2.64.4,5.14,5.14,0,0,0-2.59-.73,3.24,3.24,0,0,0-1.8.45,1.39,1.39,0,0,0-.7,1.21c0,1.16,1.06,2,3.19,2.4a10.18,10.18,0,0,1,5.13,2.31,5.91,5.91,0,0,1-.46,8.62,8.57,8.57,0,0,1-5.63,1.74,11.15,11.15,0,0,1-6.84-2.11,1.64,1.64,0,0,1-.74-1.23,2.05,2.05,0,0,1,.54-1.4Z"/><path class="cls-1" d="M212.48,27.4a11.81,11.81,0,0,0-2.75-3.87A12.86,12.86,0,0,0,205.55,21a14.24,14.24,0,0,0-10.22,0,13.17,13.17,0,0,0-4.15,2.65,12.79,12.79,0,0,0-2.79,14.11,12.26,12.26,0,0,0,2.81,4,13.11,13.11,0,0,0,4.25,2.64,14.76,14.76,0,0,0,12.12-.72,1.88,1.88,0,0,0,.94-2.67,2,2,0,0,0-1.18-1.11,2.14,2.14,0,0,0-1.67.25,10.25,10.25,0,0,1-4.93,1.21,9.43,9.43,0,0,1-4.63-1.15,8.46,8.46,0,0,1-4.39-7.53,8.72,8.72,0,0,1,.68-3.41,9,9,0,0,1,1.85-2.77A8.74,8.74,0,0,1,197,24.71a9,9,0,0,1,6.75,0,8.91,8.91,0,0,1,2.81,1.75,8.23,8.23,0,0,1,1.88,2.6,7.27,7.27,0,0,1,.7,3.14,4.15,4.15,0,0,1-.6,2.43,1.43,1.43,0,0,1-1.21.71.68.68,0,0,1-.36-.1.27.27,0,0,1-.12-.09V28.61a2.07,2.07,0,0,0-.58-1.53,2,2,0,0,0-1.52-.57h-.47a2.24,2.24,0,0,0-1.48.47,1.53,1.53,0,0,0-.18.18,5.14,5.14,0,0,0-3-.93,5.78,5.78,0,0,0-4.44,2,7.07,7.07,0,0,0,0,9.35,5.86,5.86,0,0,0,4.48,2,5.43,5.43,0,0,0,2.39-.54,5.58,5.58,0,0,0,1.29-.86,4.76,4.76,0,0,0,1.19.83,5.4,5.4,0,0,0,2.37.57,6.15,6.15,0,0,0,4.75-2.05,7.64,7.64,0,0,0,1.81-5.28A11.67,11.67,0,0,0,212.48,27.4Zm-10.29,4.24v2.49a2.22,2.22,0,0,1-.72.77,2,2,0,0,1-1.14.33,2,2,0,0,1-1.55-.66,2.57,2.57,0,0,1,0-3.37,2,2,0,0,1,1.55-.65,2,2,0,0,1,1.14.33A2.28,2.28,0,0,1,202.19,31.64Z"/></svg>